<?xml version="1.0" encoding="UTF-8"?>
<svg width="350px" height="360px" viewBox="0 0 350 360" version="1.1" xmlns="http://www.w3.org/2000/svg" xmlns:xlink="http://www.w3.org/1999/xlink">
    <title>log_simplified@3x</title>
    <g id="Page-1" stroke="none" stroke-width="1" fill="none" fill-rule="evenodd">
        <g id="log_simplified" fill="#000000" fill-rule="nonzero">
            <path d="M305.471881,0 C311.313466,17.7573971 307.613328,39.385454 294.371468,64.8841705 C282.527677,87.6907432 265.265031,110.302824 242.58353,132.720413 L242.268374,134.930753 L241.947673,137.067426 L241.723511,138.498396 L241.484902,139.971124 L241.231844,141.485631 L240.964337,143.041934 L240.68238,144.640052 L240.232351,147.115673 L239.914267,148.818411 L239.581732,150.563028 L239.431,151.336 L258.125,151.336957 C261.305435,151.336957 264.325756,151.982429 266.420204,153.119022 L266.7,153.277042 C268.975,154.511641 270.025,156.098982 269.85,157.77451 L269.542751,159.784085 L269.235914,161.709503 L269.031788,162.946772 L268.72655,164.733772 L268.422821,166.438827 L268.221376,167.530414 L267.921074,169.100736 L267.722295,170.103269 L267.426564,171.54116 L267.231213,172.456174 L267.037446,173.336611 L266.845386,174.182715 L266.560761,175.388036 L266.3735,176.149385 L266.188371,176.877262 L266.005497,177.571912 L265.825,178.233582 L302.225,178.233582 C336.867125,179.287577 346.412795,224.137037 349.025497,250.586301 L349.189605,252.321643 C349.241017,252.890549 349.289205,253.449685 349.334367,253.998371 L349.460979,255.612389 L349.460979,255.612389 L349.570637,257.159603 L349.570637,257.159603 L349.664536,258.635917 L349.664536,258.635917 L349.758434,260.314628 L349.833286,261.877315 L349.864222,262.612911 L349.864222,262.612911 L349.934214,264.625969 L349.934214,264.625969 L349.964474,265.797611 L349.990491,267.281576 L350,268.415855 L350,268.712063 C350,291.728518 345.975,313.334004 338.8,329.736535 C330.05,349.578307 317.8,359.190544 301,359.190544 L49,359.190544 C12.9906,359.190544 3.42110195,312.709547 0.895834747,286.064504 L0.736043641,284.299013 C0.711117044,284.010023 0.687024733,283.723726 0.663739194,283.440216 L0.533487125,281.773343 L0.533487125,281.773343 L0.421276979,280.177859 L0.421276979,280.177859 L0.325788142,278.658281 L0.325788142,278.658281 L0.2457,277.219123 L0.2457,277.219123 L0.153125,275.258297 L0.153125,275.258297 L0.0868,273.495517 L0.0498176,272.237536 L0.0247968,271.122847 L0.0049896,269.735572 L0,268.712063 C0,245.695607 4.025,224.090122 11.2,207.68759 C19.95,187.845818 32.2,178.233582 49,178.233582 L131.425,178.233582 L133.302464,177.891989 L133.302464,177.891989 L135.148302,177.548788 L135.148302,177.548788 L136.962761,177.204097 L136.962761,177.204097 L138.746089,176.858032 L138.746089,176.858032 L140.498534,176.510711 L140.498534,176.510711 L142.220344,176.162252 L142.220344,176.162252 L143.911767,175.812771 L143.911767,175.812771 L146.392467,175.286894 L146.392467,175.286894 L148.009006,174.935375 L148.009006,174.935375 L149.596025,174.583246 L149.596025,174.583246 L151.921745,174.054167 L151.921745,174.054167 L153.436048,173.701027 L153.436048,173.701027 L154.921699,173.347689 L154.921699,173.347689 L156.378945,172.99427 L156.378945,172.99427 L157.808034,172.640886 L157.808034,172.640886 L159.899416,172.111136 L159.899416,172.111136 L161.928838,171.582127 L161.928838,171.582127 L163.247778,171.230062 L163.247778,171.230062 L165.175795,170.703171 L165.175795,170.703171 L166.427905,170.352885 L166.427905,170.352885 L168.256839,169.829212 L168.256839,169.829212 L170.027439,169.307999 L170.027439,169.307999 L171.175843,168.962086 L171.175843,168.962086 L172.851078,168.445853 L172.851078,168.445853 L174.470208,167.933137 L174.470208,167.933137 L176.543221,167.255671 L176.543221,167.255671 L178.034695,166.752702 L178.034695,166.752702 L178.999339,166.420053 L178.999339,166.420053 L179.940536,166.089671 L179.940536,166.089671 L180.858532,165.761675 L180.858532,165.761675 L182.192567,165.274409 L182.192567,165.274409 L183.053647,164.952889 L183.053647,164.952889 L184.303469,164.475889 L184.303469,164.475889 L185.503879,164.005577 L185.503879,164.005577 L186.277114,163.695947 L186.277114,163.695947 L187.397029,163.237663 L187.397029,163.237663 L188.469761,162.787123 L188.469761,162.787123 L189.496148,162.344725 L189.496148,162.344725 L190.477026,161.910864 L190.477026,161.910864 L191.41323,161.485938 L191.41323,161.485938 L192.470673,160.992272 C192.984098,160.748856 193.474754,160.51065 193.943436,160.27803 L194.851737,159.820349 L195.284354,159.597303 L195.284354,159.597303 L196.107402,159.163219 L196.875381,158.745703 L197.5897,158.345424 L198.563655,157.778786 L198.563655,157.778786 L199.424814,157.254691 L199.938609,156.930046 L200.4058,156.62598 L201.022293,156.209933 L201.541866,155.843954 L201.969284,155.5303 L202.309307,155.271228 L202.825,154.864383 C204.575,152.659742 208.775,151.336957 213.675,151.336957 L230.26,151.336 L230.398584,150.639922 L230.903936,148.026757 L231.222853,146.337521 L231.527379,144.690607 L231.817516,143.086033 L232.093262,141.523817 L232.354617,140.003978 L232.60158,138.526536 L232.83415,137.091507 L233.052327,135.698912 L233.583478,132.107791 L234.128488,128.203348 L234.808333,123.118761 L235.646296,116.6194 L235.809845,115.310859 C213.574445,99.1539726 197.649566,82.1284009 188.035208,64.2341436 L184.636137,57.8967276 L179.045822,47.4107755 L175.257159,40.2331354 L172.595724,35.1289119 L170.791058,31.6143946 L169.888564,29.8281579 L169.142842,28.327593 L168.700999,27.4218529 L168.320052,26.625023 L168,25.9371033 C189.625421,34.5084767 206.781159,47.2741568 219.467215,64.2341436 C228.688721,76.5623746 236.244371,90.4056422 242.134166,105.763946 C247.374444,88.0838482 254.206764,72.7101519 262.630239,59.642726 C276.186323,38.6130295 290.46687,18.7321208 305.471881,0 Z M266.7,336.703202 L265.60877,336.731598 L263.438808,336.795065 L261.285693,336.867314 L259.149647,336.948202 L257.03089,337.037584 L254.929642,337.135317 L252.846126,337.241256 L250.780562,337.355258 L248.733171,337.47718 L245.696641,337.674597 L245.696641,337.674597 L243.695648,337.815687 L241.7136,337.964194 L238.776536,338.200545 L238.776536,338.200545 L236.84282,338.366963 L234.928823,338.540294 L233.034766,338.720393 L231.160869,338.907119 L229.307354,339.100325 L227.474442,339.299869 L225.662353,339.505608 L223.871309,339.717396 L222.10153,339.935091 L220.353237,340.158549 L218.626651,340.387625 L216.921992,340.622176 L215.239483,340.862059 L212.757731,341.231565 L212.757731,341.231565 L211.13156,341.484147 L209.528311,341.741557 L207.948205,342.003651 L206.391462,342.270286 L204.858304,342.541317 L203.348951,342.816602 L201.863625,343.095996 L200.402546,343.379355 L198.965935,343.666536 L197.554013,343.957395 L196.167001,344.251788 L194.80512,344.549571 L193.46859,344.8506 L192.157633,345.154733 L190.23963,345.616435 L190.23963,345.616435 L188.993571,345.927695 L187.773857,346.241555 L186.58071,346.557871 L185.414351,346.876499 L184.275,347.197295 L274.225,347.197295 C271.425,344.110797 268.8,340.583371 266.7,336.703202 Z M138.55045,202.401411 L136.417314,202.407459 C135.004101,202.415722 133.608575,202.432362 132.230319,202.456877 L130.175836,202.499493 L128.146946,202.553546 L126.143337,202.618659 C125.479646,202.642165 124.820117,202.667451 124.164697,202.694456 L122.210714,202.78056 L120.281076,202.876595 L117.431584,203.038445 L117.431584,203.038445 L114.635111,203.220524 L114.635111,203.220524 L112.799732,203.35252 L110.987137,203.492566 L109.197014,203.640284 L107.429051,203.795299 L105.682936,203.957235 L103.958357,204.125714 L102.255002,204.300361 L100.572558,204.4808 L98.9107143,204.666653 L97.2691576,204.857545 L94.8441788,205.152507 L93.2519751,205.354348 L90.8995627,205.663971 L89.3547614,205.87441 L87.8283747,206.08763 L85.5726396,206.41185 L83.356582,206.74021 L81.1791485,207.071438 L77.6330629,207.62641 L74.8680587,208.069634 L72.8345877,208.399636 L66.3471753,209.465029 L63.830714,209.872718 L61.3406163,210.266696 L58.8751905,210.64412 C49.8784599,211.994188 41.3451613,212.953127 32.9,212.890544 C32.725,213.155101 32.725,213.419658 32.55,213.684215 C30.275,220.209953 28.175,227.705734 26.6,235.730628 C32.9009962,236.27041 38.1583824,237.198895 42.6989057,238.355548 L43.8673433,238.662354 C45.019949,238.974124 46.1257037,239.300472 47.1904081,239.638547 L48.1786879,239.959495 C48.5042082,240.067569 48.8258816,240.176706 49.1438861,240.286817 L50.0870713,240.619989 C50.5533387,240.787949 51.011752,240.957907 51.4629122,241.129565 L52.3557399,241.475063 L53.2302946,241.824572 L54.087645,242.177568 L54.9288597,242.533526 L55.7550071,242.891921 L56.567156,243.252227 L57.7614696,243.795122 L58.9302972,244.339364 L60.8315032,245.244618 L61.95,245.783793 L63.8396976,246.685663 L65.0414274,247.251827 L66.5591492,247.951633 L67.4820498,248.36615 L68.4168799,248.775851 L69.3658721,249.180088 L70.331259,249.578212 L70.985061,249.839912 L71.6478033,250.098415 L72.6601271,250.479755 L73.3481145,250.729426 L74.0473575,250.975228 L74.7585178,251.216968 L75.4822569,251.454456 L76.2192361,251.687499 L76.9701172,251.915904 L77.7355615,252.13948 L78.5162307,252.358035 L79.3127863,252.571377 L80.5388535,252.881195 L80.5388535,252.881195 L81.3780191,253.080663 L82.4526497,253.3217 L82.4526497,253.3217 L83.5570125,253.553165 L84.4627781,253.731194 L85.3890607,253.902666 L85.8601026,253.985883 L85.8601026,253.985883 L87.305823,254.225169 L87.305823,254.225169 L88.2976258,254.375815 L89.3125917,254.519136 L89.8289676,254.58799 L90.8799185,254.719962 L91.9556863,254.844129 L93.0569326,254.960297 L94.1843188,255.068276 L95.3385065,255.167873 L96.5201572,255.258896 L97.7299324,255.341153 L98.3455734,255.378934 L98.3455734,255.378934 L99.5987758,255.447682 L100.881757,255.507183 L102.195177,255.557247 C102.638131,255.57234 103.086268,255.585829 103.539699,255.59768 L104.915984,255.628291 C105.380113,255.636836 105.849646,255.643713 106.324693,255.648888 L107.766488,255.659278 L108.5,255.660586 C109.187931,255.660586 109.867747,255.659013 110.539741,255.655889 L112.532556,255.641885 L114.480208,255.618704 L115.437651,255.603713 L115.437651,255.603713 L117.32087,255.567011 L119.163341,255.521457 L121.854504,255.436815 L121.854504,255.436815 L123.602825,255.369702 L125.316575,255.294194 L126.997519,255.210419 L128.647423,255.118509 L131.067939,254.965675 L131.067939,254.965675 L132.647963,254.853996 L134.203125,254.734636 L135.735189,254.607727 L137.245921,254.473399 L138.737086,254.331781 L140.210449,254.183003 L142.390975,253.946698 L142.390975,253.946698 L144.541376,253.695017 L145.961182,253.518905 L147.372011,253.336283 L148.77563,253.147284 L150.173802,252.952036 L151.568293,252.750671 L153.656989,252.437436 L155.05,252.221345 C158.55,251.692231 162.225,252.662274 163.275,254.425987 C164.325,256.1897 162.4,258.041599 158.9,258.570712 L157.456066,258.785259 L155.30724,259.096414 L153.183674,259.393113 L151.054931,259.678478 L149.630141,259.862158 L148.198923,260.040403 L146.759625,260.213053 L145.310597,260.379949 L143.850188,260.54093 L142.376747,260.695839 L140.888623,260.844515 L139.384164,260.9868 L137.093239,261.187894 L134.756277,261.37371 L133.169973,261.488835 L131.559081,261.596772 L129.093029,261.744851 L129.093029,261.744851 L126.562365,261.87586 L126.562365,261.87586 L124.836609,261.953451 L122.185879,262.054816 L122.185879,262.054816 L119.455679,262.137678 L119.455679,262.137678 L117.588645,262.182374 L115.682164,262.218448 L113.734585,262.245741 L110.732547,262.269867 L110.732547,262.269867 L108.675,262.27451 C105.5425,262.27451 102.59375,262.21278 99.81195,262.096199 L98.1627696,262.019723 L96.5528508,261.930412 L95.7623625,261.881048 L95.7623625,261.881048 L94.2098241,261.773105 L92.6945313,261.653154 C91.9460619,261.590231 91.2112572,261.522929 90.4896636,261.451433 L89.0639568,261.302904 C88.3597764,261.225899 87.6685047,261.144824 86.9896881,261.059865 L85.6485273,260.884822 L84.3397737,260.699752 L83.0626209,260.504984 C82.6420805,260.438482 82.2266725,260.370418 81.8162625,260.300849 L80.5998921,260.087676 C79.9990695,259.978886 79.40919,259.86683 78.8298,259.751695 L77.6848716,259.517373 C77.119266,259.398215 76.5638475,259.276101 76.0181625,259.151217 L74.9396361,258.89781 L73.8862593,258.637347 L72.8572257,258.370159 L72.3515856,258.234145 L72.3515856,258.234145 L71.3575548,257.957486 C71.0299772,257.864265 70.7061208,257.77006 70.3858512,257.674927 L69.4356684,257.386797 L68.9683953,257.240746 L68.9683953,257.240746 L68.0489817,256.944879 L67.1490729,256.644267 L66.2678625,256.339241 L65.4045441,256.030129 L64.5583113,255.717263 L63.7283577,255.400972 L62.5121868,254.920838 L61.3281081,254.434856 L60.1734,253.94414 L59.4185676,253.614917 L58.3067625,253.118789 L57.2170704,252.620898 L55.7938416,251.95623 L53.025,250.634004 C52.1694444,250.222471 51.3225309,249.815292 50.4753772,249.414888 L49.2033565,248.819665 L48.351853,248.429391 L47.4952549,248.044978 L46.4143364,247.57352 L46.4143364,247.57352 L45.3185185,247.11311 L44.4285462,246.753441 L43.5245974,246.402051 C43.2207324,246.286361 42.914209,246.17214 42.6046982,246.059479 L41.666875,245.726261 C37.2454733,244.193911 32.1740741,242.984715 25.55,242.344552 C25.375,244.02008 25.025,245.783793 24.85,247.45932 L26.460176,247.733592 L26.460176,247.733592 L27.7364504,247.968631 L27.7364504,247.968631 L28.9545088,248.209189 L29.8879,248.405376 L30.3411356,248.504655 L30.3411356,248.504655 L31.2210965,248.705474 L32.0662562,248.909158 L32.8772699,249.115531 L33.6547928,249.324413 L34.3994801,249.535628 L35.111987,249.748998 C35.3441987,249.82046 35.5711562,249.892252 35.7929687,249.964344 L36.4430804,250.181489 L37.0629773,250.400255 L37.6533146,250.620465 L38.2147475,250.841941 L38.7479312,251.064504 L39.2535209,251.287977 L39.7321718,251.512183 C39.8097385,251.549602 39.88621,251.587044 39.9616,251.624505 L40.4010712,251.849476 L40.611278,251.96208 L40.611278,251.96208 L41.0130437,252.187416 L41.2047664,252.300103 L41.2047664,252.300103 L41.5703008,252.525404 L41.9125,252.750459 L42.2320192,252.975091 C42.3348184,253.049878 42.4339468,253.124565 42.5295136,253.199122 L42.8056384,253.422375 L42.9358919,253.533653 L42.9358919,253.533653 L43.1811908,253.755404 C43.3380734,253.902849 43.4818016,254.04948 43.613249,254.195057 L43.8013187,254.412605 L43.9716224,254.628395 L44.0503168,254.735576 L44.0503168,254.735576 L44.1952,254.948399 C44.217985,254.98369 44.240098,255.018891 44.2615526,255.053995 L44.3824895,255.263449 C44.4202412,255.332866 44.4554687,255.401871 44.4882812,255.470436 L44.5795829,255.674776 L44.6570498,255.876293 L44.7213371,256.07481 L44.7944896,256.366568 L44.7944896,256.366568 L44.835519,256.603803 L44.835519,256.603803 L44.8597943,256.835307 L44.8680116,257.016151 L44.8686112,257.105058 L44.8573562,257.365457 L44.8282408,257.615903 L44.8,257.777042 C44.2895833,260.194798 41.2185764,262.312479 36.385923,263.885021 L35.6836463,264.105935 L34.9579191,264.319273 C34.5892792,264.424022 34.2120396,264.52587 33.8264913,264.624729 L33.0444029,264.818434 C32.6479058,264.913267 32.2432943,265.00505 31.8308594,265.093695 L30.9956447,265.266774 L30.5703758,265.350125 L30.5703758,265.350125 L29.7048383,265.510352 L28.8197325,265.661812 L27.9155762,265.804347 L26.9928868,265.937799 L26.0521821,266.062007 L25.0939797,266.176814 L24.1187971,266.282061 C23.9548804,266.298797 23.7902778,266.315128 23.625,266.33105 L23.625,269.593919 L33.425,269.593919 C37.1,269.593919 39.9,271.093075 39.9,272.856788 C39.9,274.620501 36.925,276.119658 33.425,276.119658 L23.625,276.119658 C23.66875,276.736957 23.7015625,277.354257 23.7316406,277.971556 L23.821875,279.823455 C23.8875,281.058054 23.975,282.292653 24.15,283.527253 L27.2156571,283.556549 L31.8570563,283.617287 L35.715015,283.681354 L39.8630534,283.763222 L45.0294547,283.883554 L48.9106219,283.987319 L53.7507784,284.133027 L58.7622671,284.303493 L61.3229839,284.398555 L65.6594583,284.572303 L70.0668098,284.766063 L73.6321776,284.936156 L76.7275768,285.093103 L79.3046786,285.229826 L81.84435,285.370994 L84.3465574,285.516606 L88.02955,285.743358 L90.4379504,285.900082 L92.8087692,286.06125 L96.2944584,286.311335 L98.5711762,286.483615 L100.810195,286.660339 L103.011481,286.841508 L106.242587,287.121594 L106.242587,287.121594 L108.349394,287.313874 L111.438624,287.610628 L111.438624,287.610628 L114.442577,287.917381 L114.442577,287.917381 L116.397781,288.12744 L118.315,288.341942 L120.1942,288.56089 L122.035348,288.784282 L122.941643,288.897644 L122.941643,288.897644 L125.603355,289.244399 L125.603355,289.244399 L127.330146,289.481125 L129.848722,289.844546 L129.848722,289.844546 L131.479984,290.092383 L133.465239,290.40843 L133.465239,290.40843 L135.390632,290.731421 L136.144012,290.862562 L136.144012,290.862562 L137.621991,291.128177 C138.108251,291.217456 138.588111,291.307476 139.061565,291.398237 L140.4627,291.672741 L141.825363,291.95169 C142.497071,292.092275 143.15434,292.234528 143.79715,292.378447 L145.063486,292.668507 C146.310534,292.960789 147.499696,293.259739 148.630824,293.565355 L149.7426,293.873193 L150.815652,294.185476 C153.97669,295.128992 156.6145,296.13251 158.725,297.196029 C163.45,299.577042 165.725,302.222611 165.725,305.220923 C165.725,316.768173 137.526407,321.969008 103.77011,324.308537 L101.058179,324.489662 C100.150537,324.548046 99.239371,324.604461 98.3251118,324.658974 L95.5734834,324.816872 C94.6534667,324.867646 93.7307858,324.916584 92.8058702,324.963751 L90.0248482,325.100007 L90.0248482,325.100007 L87.2329935,325.226039 L87.2329935,325.226039 L84.4328821,325.342241 C83.965652,325.360811 83.4981851,325.378987 83.0305352,325.39678 L80.2228688,325.498982 C79.7547015,325.515268 79.2864585,325.531186 78.8181934,325.546744 L76.0087682,325.635838 L76.0087682,325.635838 L73.2013904,325.716689 L73.2013904,325.716689 L70.398636,325.789693 C69.9320387,325.801229 69.4657413,325.812454 68.9997976,325.823377 L65.4686553,325.900661 L61.9563374,325.96713 L58.4680687,326.023588 L55.009074,326.07084 L51.5845781,326.109689 L48.1998058,326.140941 L43.2085584,326.17533 L38.3360785,326.197148 L33.6,326.209109 L34.0352577,327.197982 L34.4718357,328.157861 C34.908959,329.103365 35.347546,330.005928 35.786047,330.867199 L36.2244618,331.714766 L36.6624749,332.535172 L37.0997417,333.328782 L37.5359178,334.095963 L37.9706589,334.837082 L38.4036205,335.552504 C38.4756133,335.66962 38.5475177,335.785681 38.6193263,335.900694 L39.0489729,336.578258 C39.1917675,336.799963 39.3341219,337.017538 39.4759789,337.231043 L39.9,337.859414 L40.3206917,338.463737 L40.7377096,339.044379 L41.1507093,339.601707 L41.3555947,339.871742 L41.3555947,339.871742 L41.7619214,340.394785 L42.2629278,341.017133 L42.2629278,341.017133 L42.7556378,341.605199 L43.1433802,342.051449 L43.5250379,342.476583 L43.9002665,342.880967 L44.2687216,343.264968 L44.6300586,343.628952 L44.9839333,343.973285 L45.3300012,344.298334 L45.5,344.453741 L45.5,344.453741 L45.8337119,344.750551 L46.158756,345.028992 L46.4747878,345.289431 L46.781463,345.532235 L47.078437,345.75777 L47.3653655,345.966402 L47.6419041,346.158498 L47.9077084,346.334424 L48.2855345,346.568797 L48.522996,346.705901 L48.8566936,346.883759 L49.0636598,346.984332 L49.2578252,347.070933 L49.35,347.109109 L49.35,347.109109 L161.35,347.109109 C168.29575,343.831248 177.238403,341.0434 187.395781,338.72627 L189.148799,338.333655 L189.148799,338.333655 L190.924741,337.950241 C192.414,337.634557 193.926225,337.328434 195.459135,337.031816 L197.308411,336.680434 L197.308411,336.680434 L199.176669,336.338156 C199.802488,336.225578 200.431325,336.114513 201.063034,336.004959 L203.179167,335.645366 L205.315371,335.296928 L207.470446,334.959617 L209.643191,334.633402 C210.37025,334.52651 211.100054,334.421462 211.832403,334.318254 L214.036883,334.014143 L215.144472,333.866218 L215.144472,333.866218 L217.3696,333.578608 L219.606992,333.301961 L221.855446,333.036248 C222.606642,332.949496 223.35948,332.864561 224.113763,332.781438 L226.380739,332.537503 C227.137708,332.458001 227.89592,332.380306 228.655175,332.304413 L230.935869,332.082138 L233.221619,331.870649 L235.511226,331.669915 L236.657099,331.573572 L238.950237,331.388916 C239.33253,331.359031 239.71486,331.329591 240.0972,331.300596 L242.391166,331.131952 L243.537868,331.051621 L245.829959,330.898921 L246.975049,330.826546 L249.262563,330.689725 C250.405282,330.623954 251.546294,330.562138 252.684923,330.504262 L256.092985,330.342433 L256.092985,330.342433 L258.355082,330.247628 L260.60782,330.163253 L262.85,330.089278 C261.275,326.561852 259.875,322.769869 258.825,319.066071 L257.701335,319.074378 L255.49294,319.096973 L253.335588,319.127436 L251.228231,319.165639 L249.169824,319.211454 L247.15932,319.264751 L245.195671,319.325402 L243.277833,319.393279 L241.404757,319.468253 L239.575398,319.550195 L237.788709,319.638978 L236.043643,319.734471 L234.339154,319.836548 L232.674195,319.945079 L231.04772,320.059935 L229.458682,320.180989 L227.906035,320.308112 L226.388732,320.441174 L224.905726,320.580049 L223.455971,320.724606 L222.038421,320.874717 L220.652028,321.030255 L218.628571,321.273453 L218.628571,321.273453 L217.315494,321.441993 L216.029912,321.615509 L214.770778,321.793873 L213.537046,321.976955 L212.32767,322.164627 L210.556981,322.454462 L209.403914,322.653048 L207.712784,322.95865 L206.609485,323.167346 L204.988101,323.487511 L203.92803,323.705513 L202.366581,324.039035 L201.343196,324.265541 L199.831872,324.611215 L198.345912,324.963602 L196.881785,325.322268 L195.916086,325.564653 L193.530553,326.181137 L192.113692,326.5576 L189.765016,327.194599 L185.675,328.325565 L181.816817,329.426831 L179.172875,330.164677 L177.138597,330.717941 L175.753484,331.086051 L174.342437,331.453157 L172.90306,331.818897 L171.43296,332.182912 L169.548484,332.634958 L169.548484,332.634958 L167.607587,333.083043 C167.082076,333.201942 166.550048,333.320344 166.011104,333.438188 L164.373125,333.789989 L162.691256,334.138086 L160.963103,334.482119 L159.186272,334.821729 L158.278854,334.989763 L158.278854,334.989763 L156.424517,335.322063 C154.856793,335.596812 153.232128,335.866017 151.544288,336.128739 L149.488157,336.440835 L147.776589,336.688825 L147.776589,336.688825 L146.611937,336.851658 L146.611937,336.851658 L144.828605,337.092025 L144.828605,337.092025 L142.380992,337.40497 L142.380992,337.40497 L140.491254,337.633773 L140.491254,337.633773 L138.553792,337.857301 L138.553792,337.857301 L136.567336,338.075364 L136.567336,338.075364 L134.530611,338.28777 L134.530611,338.28777 L131.734585,338.561847 L131.734585,338.561847 L130.30127,338.694845 L130.30127,338.694845 L128.106109,338.889132 L128.106109,338.889132 L125.855591,339.076997 L125.855591,339.076997 L123.548443,339.25825 L123.548443,339.25825 L121.183395,339.432697 L121.183395,339.432697 L118.759172,339.60015 L118.759172,339.60015 L117.109522,339.707804 L117.109522,339.707804 L114.58385,339.863172 L114.58385,339.863172 L111.995611,340.011035 L111.995611,340.011035 L109.343534,340.151201 L109.343534,340.151201 L105.705927,340.325786 L105.705927,340.325786 L103.842775,340.407679 L103.842775,340.407679 L101.949553,340.485896 L101.949553,340.485896 L99.0525155,340.596205 L99.0525155,340.596205 L96.0857026,340.697925 L96.0857026,340.697925 L93.0478414,340.790865 L93.0478414,340.790865 L89.9376599,340.874834 L89.9376599,340.874834 L87.8233992,340.925735 L87.8233992,340.925735 L84.5898564,340.994327 L84.5898564,340.994327 L82.3921768,341.034799 L82.3921768,341.034799 L80.16047,341.071 L80.16047,341.071 L77.894359,341.102875 L77.894359,341.102875 L74.4298599,341.142449 L74.4298599,341.142449 L70.8858309,341.171968 L70.8858309,341.171968 L67.2609996,341.191242 L67.2609996,341.191242 L63.5540939,341.200077 C63.1376087,341.200472 62.71958,341.20067 62.3,341.20067 C58.625,341.20067 55.825,339.701514 55.825,337.937801 C55.825,336.174088 58.8,334.674932 62.3,334.674932 L66.8203596,334.667273 L66.8203596,334.667273 L69.0314715,334.657761 L69.0314715,334.657761 L74.4188431,334.617733 L74.4188431,334.617733 L77.5566732,334.582778 L77.5566732,334.582778 L81.6324504,334.523698 L81.6324504,334.523698 L85.5872777,334.450659 L85.5872777,334.450659 L88.4756487,334.386917 L88.4756487,334.386917 L92.2253092,334.290237 L92.2253092,334.290237 L94.9629051,334.209139 L94.9629051,334.209139 L97.6377812,334.120831 L97.6377812,334.120831 L101.108687,333.992112 L101.108687,333.992112 L104.472814,333.851148 L104.472814,333.851148 L107.732863,333.698266 L107.732863,333.698266 L110.111222,333.575978 L110.111222,333.575978 L113.195629,333.403023 L113.195629,333.403023 L115.445357,333.266056 L115.445357,333.266056 L117.641855,333.123028 L117.641855,333.123028 L119.786262,332.974075 L119.786262,332.974075 L121.879717,332.819336 L121.879717,332.819336 L123.923358,332.658947 L123.923358,332.658947 L125.918325,332.493048 L125.918325,332.493048 L128.435724,332.26984 L130.514469,332.073227 L130.514469,332.073227 L132.538736,331.870482 C133.204582,331.801899 133.861603,331.732324 134.510053,331.661789 L136.429945,331.447333 C136.745727,331.411121 137.059429,331.374675 137.371085,331.338002 L139.216704,331.115247 C139.520298,331.077674 139.821908,331.039881 140.121566,331.00187 L141.896349,330.771232 C142.188327,330.732368 142.478418,330.693295 142.766651,330.654017 L144.474033,330.41591 L144.474033,330.41591 L146.138388,330.173056 C146.41228,330.132195 146.684443,330.091144 146.954909,330.049906 L148.836302,329.755773 L150.6638,329.455752 L152.43989,329.150144 C153.607367,328.944609 154.74223,328.73555 155.847793,328.523367 L157.484578,328.202799 L158.287266,328.040852 L158.287266,328.040852 L159.86279,327.713819 C160.381537,327.604136 160.893996,327.493797 161.400581,327.382852 L163.641957,326.879681 L163.641957,326.879681 L165.096294,326.540193 L166.5216,326.197821 L167.920362,325.852868 L169.974175,325.331254 L171.317455,324.98116 L173.2997,324.453245 L175.894751,323.745754 L182.932557,321.796486 L186.152814,320.922146 L187.778762,320.490655 L189.421154,320.063807 L191.08441,319.642245 L192.207024,319.364457 L193.342187,319.089495 L194.491211,318.817549 L195.655405,318.54881 L196.836079,318.283467 L198.640859,317.892239 L199.868469,317.636222 L201.117146,317.384268 L202.3882,317.136569 L204.339606,316.773413 L204.339606,316.773413 L205.672337,316.537182 L207.722402,316.192122 L207.722402,316.192122 L209.125,315.96855 L210.557838,315.750375 L211.286007,315.643371 L211.286007,315.643371 L212.766662,315.433649 L215.050898,315.130137 L215.050898,315.130137 L216.6178,314.935455 L217.414966,314.840483 L217.414966,314.840483 L219.037548,314.655396 L219.863291,314.565329 L219.863291,314.565329 L221.544501,314.390267 C222.111618,314.333055 222.685523,314.276997 223.266434,314.222125 L225.0304,314.061094 C225.92311,313.982389 226.832074,313.906421 227.758029,313.833299 L229.632812,313.69088 C229.949125,313.667786 230.26738,313.645017 230.587605,313.622575 L232.53281,313.491895 C232.861023,313.470781 233.19126,313.450004 233.52355,313.429566 L235.542124,313.311053 L237.61125,313.200889 L239.732238,313.099264 L241.906397,313.006371 L244.135039,312.922397 L246.419473,312.847536 L247.583022,312.813581 L247.583022,312.813581 L249.953603,312.752744 L252.383253,312.701494 L253.620638,312.679524 L253.620638,312.679524 L256.141348,312.643012 C256.566625,312.63776 256.9945,312.632928 257.425,312.628518 C256.608333,309.610609 256.003395,306.646047 255.445508,303.69334 L254.975,301.164383 L252.562668,301.125887 L250.198111,301.077916 L247.88041,301.020638 L245.608648,300.954218 L243.381907,300.878822 L242.285132,300.83781 L242.285132,300.83781 L240.124201,300.749261 C239.767632,300.733785 239.412843,300.717952 239.059815,300.701766 L236.96263,300.600437 L234.906794,300.490796 L232.891389,300.373008 L230.915498,300.247239 L228.499803,300.079057 L228.499803,300.079057 L226.142621,299.898989 L225.21573,299.823706 L225.21573,299.823706 L223.388716,299.667672 L221.596627,299.504488 L219.838544,299.334317 C219.548313,299.305383 219.259461,299.276164 218.971968,299.246664 L216.420727,298.973683 L216.420727,298.973683 L214.759157,298.783551 L213.127922,298.587097 L211.526105,298.384486 C210.996967,298.315942 210.472579,298.246399 209.952787,298.175886 L208.407051,297.96146 L206.887979,297.741377 L205.394654,297.5158 L203.926156,297.284896 L202.481568,297.048832 L201.059974,296.807772 L199.660453,296.561883 L198.28209,296.311331 L196.923965,296.056281 L195.585162,295.796899 L194.264762,295.533352 L192.961847,295.265804 L191.6755,294.994423 L190.404802,294.719373 L189.148837,294.440821 L187.290503,294.016789 L185.460152,293.58581 L184.253936,293.294907 L181.871012,292.705249 L180.106027,292.256787 L177.197505,291.499165 L174.892236,290.885392 L172.371609,290.204758 L166.384019,288.574587 L162.929392,287.644672 L160.882115,287.103052 L158.808755,286.564362 L156.703801,286.029516 L155.280226,285.675538 L153.838528,285.323944 L151.638428,284.801619 L150.14428,284.457173 L148.626294,284.116059 L147.082839,283.778548 L144.716329,283.279631 L144.716329,283.279631 L143.102056,282.952313 L141.4566,282.629545 L139.778328,282.311599 L138.926375,282.154519 L138.926375,282.154519 L137.195817,281.844312 L135.428361,281.539604 L134.530286,281.389397 L134.530286,281.389397 L132.704422,281.093443 L130.837579,280.803665 C129.89364,280.660365 128.933722,280.519482 127.956906,280.381168 L125.980472,280.108012 C125.313969,280.018132 124.639684,279.929439 123.957344,279.841978 L121.88589,279.583337 L119.764478,279.33236 L117.591474,279.089318 L115.365246,278.854482 C111.985171,278.508516 108.419955,278.191157 104.644803,277.906517 L102.096661,277.721648 C98.6569451,277.481741 95.0470003,277.268406 91.2494125,277.084533 L88.3657665,276.952197 C86.9060799,276.888836 85.4193938,276.82972 83.9047898,276.775 L80.8380859,276.671468 L78.2244519,276.594344 L78.2244519,276.594344 L75.5570396,276.525706 C75.1079368,276.514982 74.656554,276.504618 74.2028713,276.494618 L71.4530201,276.439004 C70.9900595,276.43047 70.5247597,276.422307 70.057101,276.414516 L67.2226852,276.372279 C66.2683395,276.35971 65.304401,276.348659 64.330712,276.339154 L60.7830381,276.311656 L58.066016,276.299955 L58.066016,276.299955 L55.3,276.296029 L55.3,276.296029 C51.625,276.296029 48.825,274.796873 48.825,273.03316 C48.825,271.269447 51.8,269.770291 55.3,269.770291 L58.7561732,269.776229 L58.7561732,269.776229 L62.1400559,269.793907 L62.1400559,269.793907 L65.452853,269.823115 L65.452853,269.823115 L68.6957694,269.863645 L68.6957694,269.863645 L71.8700098,269.915289 L71.8700098,269.915289 L74.9767792,269.977839 L74.9767792,269.977839 L77.0110699,270.025495 L77.0110699,270.025495 L80.008065,270.105759 L80.008065,270.105759 L82.940802,270.196373 L82.940802,270.196373 L84.860856,270.26243 L84.860856,270.26243 L87.6891735,270.369832 L87.6891735,270.369832 L90.4564459,270.48703 L90.4564459,270.48703 L92.2679751,270.5705 L92.2679751,270.5705 L94.9361829,270.70356 L94.9361829,270.70356 L96.6827847,270.797413 L96.6827847,270.797413 L98.4040403,270.895311 L98.4040403,270.895311 L100.93918,271.049607 L100.93918,271.049607 L103.419299,271.212657 L103.419299,271.212657 L105.845602,271.384252 L105.845602,271.384252 L108.219294,271.564186 L108.219294,271.564186 L110.54158,271.752248 L110.54158,271.752248 L112.813663,271.948232 L112.813663,271.948232 L114.301091,272.083185 L114.301091,272.083185 L115.7671,272.221505 L115.7671,272.221505 L117.926732,272.435162 L117.926732,272.435162 L119.340754,272.581627 L119.340754,272.581627 L121.42408,272.807213 L121.42408,272.807213 L122.788347,272.961438 L122.788347,272.961438 L125.176822,273.244252 C128.321379,273.627551 131.307434,274.035389 134.156669,274.464019 L136.26828,274.789332 C139.050461,275.228124 141.701244,275.686771 144.242311,276.161526 L146.127878,276.520554 L147.974336,276.885271 L148.883533,277.069653 L148.883533,277.069653 L150.675136,277.442244 L152.432711,277.819647 L154.15829,278.201508 L155.853906,278.587478 L157.521593,278.977204 L159.163382,279.370336 L160.781306,279.766522 L162.377399,280.165411 L163.953694,280.566651 L166.285459,281.172151 L169.344157,281.984435 L179.131006,284.642743 L182.221119,285.470785 L184.866689,286.16415 L187.006782,286.71085 L189.174997,287.249216 L190.823563,287.646837 L191.934814,287.908722 L193.056789,288.167885 L194.761651,288.551214 L195.914023,288.80295 L197.07999,289.051466 L198.856226,289.417895 L200.059771,289.657743 L201.279782,289.893874 L202.517082,290.126148 L203.772489,290.354422 L205.046825,290.578554 L206.340911,290.798403 L207.655566,291.013825 L208.991612,291.22468 L210.349869,291.430826 L211.731157,291.632119 L213.136297,291.82842 L214.56611,292.019585 L216.021417,292.205472 L217.503037,292.38594 L219.011791,292.560847 L220.548501,292.730051 L222.113985,292.893409 L223.709066,293.050781 L225.334564,293.202023 L226.991298,293.346994 L228.680091,293.485552 L230.401761,293.617556 L232.157131,293.742862 L233.94702,293.86133 L235.772248,293.972817 L237.633638,294.077181 L239.532008,294.174281 L241.468181,294.263974 L243.442975,294.346118 L246.479378,294.454871 L246.479378,294.454871 L249.607297,294.545841 L249.607297,294.545841 L251.744786,294.596372 L253.925,294.638645 L253.581481,291.764446 C253.361111,289.87662 253.166667,288.054116 253.05,286.349193 L252.157425,286.334693 L250.372377,286.297998 C249.777505,286.284044 249.182859,286.26836 248.588681,286.250922 L246.807799,286.193316 L245.031193,286.125033 C244.439866,286.100476 243.849495,286.074115 243.260324,286.045924 L241.496654,285.955842 L239.741644,285.854637 C239.158246,285.819032 238.576536,285.781549 237.996756,285.742163 L236.263452,285.61827 C235.399939,285.553444 234.541318,285.484281 233.688412,285.410697 L231.990461,285.25761 C230.018975,285.072075 228.081584,284.862168 226.188731,284.626832 L224.577437,284.418863 C223.510837,284.276032 222.459755,284.124799 221.426139,283.964966 L219.889059,283.718742 L218.916582,283.553771 L218.916582,283.553771 L217.955898,283.38338 L217.955898,283.38338 L217.007392,283.207532 L217.007392,283.207532 L216.071451,283.026186 L216.071451,283.026186 L215.148463,282.839304 L215.148463,282.839304 L214.238815,282.646846 L214.238815,282.646846 L213.342892,282.448773 L213.342892,282.448773 L212.461083,282.245046 L212.461083,282.245046 L211.593774,282.035626 C211.450453,282.000245 211.307752,281.964627 211.165679,281.928768 L210.320846,281.710734 L210.320846,281.710734 L209.49148,281.486908 C209.354563,281.449119 209.218307,281.411087 209.082719,281.372811 L208.277281,281.140224 C208.1444,281.10097 208.012204,281.061471 207.8807,281.021725 L207.10006,280.780289 L207.10006,280.780289 L206.336434,280.532906 C206.210603,280.491177 206.085496,280.449199 205.961123,280.406971 L205.223746,280.150591 C205.102338,280.107358 204.981679,280.063873 204.861777,280.020136 L204.151519,279.754671 L204.151519,279.754671 L203.459825,279.483102 C197.09184,276.919838 193.2,273.553696 193.2,269.241177 C193.2,262.009953 198.625,256.895185 209.825,253.455945 C210.126538,253.363689 210.431888,253.272769 210.741103,253.183177 L211.680407,252.918378 L212.643248,252.661502 L213.629962,252.412502 L214.640885,252.171332 L215.676355,251.937946 C216.72421,251.708436 217.809389,251.490533 218.933406,251.284027 L220.070426,251.081314 L221.233673,250.886153 C222.017989,250.758553 222.820015,250.635957 223.6402,250.518304 L224.884152,250.345523 L226.155678,250.18011 C226.584153,250.126196 227.01728,250.073501 227.455115,250.022019 L228.7828,249.871202 L230.139068,249.727615 L231.524256,249.59121 L232.938701,249.461941 L234.382738,249.339763 L235.856706,249.224628 L237.360939,249.116492 L238.895775,249.015306 L240.46155,248.921026 L242.0586,248.833605 L243.687262,248.752997 L245.347872,248.679155 L247.040767,248.612033 L248.766284,248.551586 L251.416459,248.473327 L253.225,248.429362 C253.575,244.637379 254.1,241.021767 254.8,237.406155 C242.251852,238.13777 231.670233,239.953257 221.489204,242.32043 L219.584573,242.77061 L218.635062,243.000305 L218.635062,243.000305 L216.740213,243.468419 C216.109333,243.62633 215.479062,243.786072 214.849018,243.947514 L212.959184,244.43681 L211.068416,244.935529 L208.225497,245.699568 L205.367573,246.480421 L200.55,247.812063 L198.975,248.252991 C195.825,249.134847 191.8,248.605734 190.05,246.930206 C189.525,246.401092 189.175,245.871978 189.175,245.342864 C189.175,244.196451 190.4,243.050037 192.5,242.432738 L195.390266,241.626315 L199.325112,240.536181 L201.945572,239.817577 L204.569745,239.108164 L206.323766,238.64146 L208.083203,238.180536 L210.735807,237.501472 L210.735807,237.501472 L212.515371,237.057967 C213.110256,236.911453 213.706923,236.766299 214.305621,236.622616 L216.108064,236.196098 C217.314092,235.914848 218.529252,235.639938 219.755552,235.372272 L221.603609,234.976321 C231.816638,232.829716 242.85625,231.20698 255.85,230.61586 C256.9,225.94202 258.125,221.444552 259.525,217.211641 C248.682089,217.702781 238.687331,216.398846 228.359801,214.400747 L226.217935,213.977804 L226.217935,213.977804 L224.131753,213.551231 L222.032365,213.110071 L219.917658,212.656293 L217.785518,212.191868 L209.194107,210.300488 L206.448862,209.706628 L203.651576,209.114267 L201.516223,208.672954 L199.3463,208.235715 L197.879358,207.94717 L196.39537,207.661461 L194.893664,207.378999 L193.373566,207.100194 L191.834405,206.825457 L190.275507,206.555197 L188.298105,206.224294 L188.298105,206.224294 L186.2875,205.901831 L184.654227,205.650474 L182.161426,205.285426 L182.161426,205.285426 L180.469984,205.050649 L178.754096,204.823222 C178.177985,204.748684 177.597688,204.675439 177.013092,204.603556 L175.246296,204.39206 C174.949644,204.357514 174.651889,204.323326 174.353017,204.289504 L172.546275,204.091033 L171.632645,203.99522 L171.632645,203.99522 L169.784443,203.810698 C169.474055,203.78075 169.16248,203.751212 168.849704,203.72209 L166.958529,203.552439 L166.001925,203.471498 L166.001925,203.471498 L164.066263,203.317642 L162.100102,203.174829 L160.102771,203.043468 C157.083058,202.855222 153.955872,202.707015 150.710998,202.605079 L149.625,202.572822 C148.101923,202.526307 146.597781,202.489674 145.112158,202.462421 L142.89756,202.428515 L140.710428,202.408304 C139.985927,202.403807 139.265952,202.401411 138.55045,202.401411 Z M301,190.491388 L300.759538,190.623267 L300.507792,190.770145 L300.245103,190.932372 L299.971814,191.110301 L299.542752,191.407403 L299.542752,191.407403 L299.244458,191.626123 L298.93676,191.861774 L298.62,192.114709 L298.294521,192.385279 L297.960664,192.673834 L297.618771,192.980728 L297.269184,193.30631 L296.731126,193.830496 L296.3638,194.204339 L295.989978,194.598103 L295.61,195.012137 L295.224209,195.446794 L294.832947,195.902425 L294.436556,196.379382 L293.8331,197.135572 L293.8331,197.135572 L293.322824,197.803844 L293.322824,197.803844 L292.806538,198.507496 L292.38963,199.096354 C292.250128,199.296527 292.110114,199.500605 291.969644,199.708647 L291.546922,200.344726 L291.121807,201.004943 L290.694641,201.68965 L290.265764,202.399197 L290.050792,202.763396 L290.050792,202.763396 L289.619992,203.510864 L289.188337,204.284051 L288.756169,205.08331 L288.323831,205.908991 L287.891663,206.761447 L287.460008,207.641028 C287.100605,208.385413 286.742091,209.158419 286.385359,209.960964 L285.958193,210.938254 L285.533078,211.944251 L285.00509,213.242654 L285.00509,213.242654 L284.9,213.507843 C278.95,228.58759 275.625,248.164805 275.625,268.623877 C275.625,289.082949 278.95,308.571978 284.9,323.739911 L285.321396,324.789629 C285.391852,324.962136 285.462415,325.133425 285.533078,325.303503 L285.958193,326.3095 C286.313357,327.135821 286.670659,327.932238 287.029208,328.699667 L287.460008,329.606726 L287.67575,330.049929 L287.67575,330.049929 L288.107704,330.915904 C288.323795,331.342124 288.540014,331.758239 288.756169,332.164444 L289.188337,332.963703 L289.619992,333.73689 L290.050792,334.484358 L290.265764,334.848557 L290.265764,334.848557 L290.694641,335.558104 L291.121807,336.242811 L291.546922,336.903028 L291.969644,337.539107 C292.039879,337.643128 292.11,337.746158 292.18,337.848204 L292.59849,338.448736 L293.116994,339.166733 L293.116994,339.166733 L293.629754,339.849075 L293.8331,340.112182 L293.8331,340.112182 L294.236544,340.621787 L294.832947,341.345329 L294.832947,341.345329 L295.41781,342.020888 L295.41781,342.020888 L295.800737,342.44519 L296.17768,342.849045 L296.548296,343.232805 L296.912245,343.59682 L297.269184,343.941444 L297.618771,344.267026 L297.960664,344.57392 L298.294521,344.862475 L298.62,345.133045 L298.93676,345.38598 L299.394802,345.733086 L299.688266,345.943472 L299.971814,346.137453 L300.245103,346.315382 L300.635054,346.552945 L300.881201,346.69228 C300.92128,346.714257 300.960882,346.735617 301,346.756366 L301.240462,346.624487 L301.492208,346.477609 L301.754897,346.315382 L302.028186,346.137453 L302.311734,345.943472 L302.605198,345.733086 L302.908237,345.505944 L303.220509,345.261695 L303.541671,344.999987 L303.871382,344.720468 L304.2093,344.422787 L304.381229,344.267026 L304.381229,344.267026 L304.730816,343.941444 L305.087755,343.59682 L305.451704,343.232805 L305.82232,342.849045 L306.199263,342.44519 L306.58219,342.020888 L306.970759,341.575788 L307.364629,341.109538 L307.763456,340.621787 L307.964622,340.369738 L307.964622,340.369738 L308.370246,339.849075 L308.986269,339.026008 L308.986269,339.026008 L309.40151,338.448736 L309.61037,338.1514 L309.61037,338.1514 L310.030356,337.539107 L310.241396,337.224062 L310.241396,337.224062 L310.665357,336.575958 L311.091541,335.90354 C311.162738,335.789425 311.234013,335.674282 311.305359,335.558104 L311.734236,334.848557 C311.877441,334.607862 312.020875,334.362968 312.16448,334.113817 L312.59575,333.353534 C312.73964,333.095809 312.883643,332.833769 313.027704,332.567355 L313.46,331.754928 L313.892296,330.915904 L314.32425,330.049929 L314.75552,329.156653 C315.114532,328.400783 315.472475,327.616108 315.828459,326.801712 L316.254643,325.810112 L316.678604,324.789629 C316.819516,324.444615 316.96,324.094728 317.1,323.739911 C323.05,308.660164 326.375,289.082949 326.375,268.623877 C326.375,248.252991 323.05,228.675776 317.1,213.507843 C316.96,213.153026 316.819516,212.803139 316.678604,212.458125 L316.254643,211.437642 L315.828459,210.446042 C315.472475,209.631646 315.114532,208.846971 314.75552,208.091101 L314.32425,207.197825 C314.18036,206.904636 314.036357,206.615997 313.892296,206.33185 L313.46,205.492826 C313.171765,204.942381 312.883529,204.409669 312.59575,203.89422 L312.16448,203.133937 C312.020875,202.884786 311.877441,202.639892 311.734236,202.399197 L311.305359,201.68965 L311.091541,201.344214 L311.091541,201.344214 L310.665357,200.671796 L310.030356,199.708647 L310.030356,199.708647 L309.61037,199.096354 L309.193462,198.507496 L308.986269,198.221746 L308.986269,198.221746 L308.574618,197.667381 L308.1669,197.135572 L307.763456,196.625967 C307.696591,196.542864 307.629918,196.460671 307.563444,196.379382 L307.167053,195.902425 L306.775791,195.446794 L306.199263,194.802564 L306.199263,194.802564 L305.82232,194.398709 L305.451704,194.014949 L304.908388,193.47622 L304.908388,193.47622 L304.555082,193.141161 L304.2093,192.824967 L303.871382,192.527286 L303.541671,192.247767 L303.220509,191.986059 L302.908237,191.74181 L302.457248,191.407403 L302.168699,191.205263 L301.890238,191.019352 L301.492208,190.770145 L301.492208,190.770145 L301.240462,190.623267 L301,190.491388 Z M25.025,290.229362 L25.55,294.638645 C32.231675,294.819161 38.3159086,295.039493 43.8559964,295.292739 L47.1151779,295.448582 C47.6476341,295.475195 48.1747553,295.502124 48.696595,295.529362 L51.7646807,295.696432 C59.2785796,296.123087 65.6281082,296.616036 70.9931392,297.151991 L73.0870715,297.368612 C96.2328938,299.848387 99.6390763,303.148156 100.063479,305.098129 L100.09639,305.28695 L100.113392,305.466456 L100.118112,305.636179 L100.105227,305.944391 L100.073747,306.310627 L100.051717,306.473533 L100.019338,306.645671 C100.006452,306.704531 99.99129,306.764843 99.9733,306.82652 L99.9102944,307.015559 L99.8763437,307.101197 L99.8763437,307.101197 L99.7955374,307.276751 L99.7955374,307.276751 L99.695645,307.457712 C99.6589159,307.518894 99.61863,307.580919 99.5744112,307.643726 L99.4295804,307.834437 C98.0918422,309.474446 93.952364,311.585133 80.7782076,313.185965 L79.1862485,313.371887 C76.7346584,313.647064 73.9940995,313.905165 70.9303181,314.140803 L68.8395364,314.294507 C68.4829666,314.31955 68.1223125,314.344301 67.7575271,314.368753 L65.518862,314.511808 L65.518862,314.511808 L63.1787888,314.647321 C61.9830242,314.713132 60.7483858,314.775982 59.4736049,314.83567 L56.8701439,314.950773 C54.2124077,315.061542 51.3907185,315.159134 48.3949268,315.241953 L45.3407252,315.319787 C44.8218939,315.331919 44.2981325,315.343626 43.7693939,315.3549 L40.536861,315.417295 L40.536861,315.417295 L37.1826213,315.468955 L37.1826213,315.468955 L33.7044194,315.509523 C32.5241078,315.521157 31.32276,315.530885 30.1,315.538645 C30.35,316.546481 30.6892857,317.509324 31.0540816,318.49145 L31.5,319.683371 L35.5106808,319.680209 L41.0683672,319.663943 L46.8346424,319.629933 L49.7852488,319.604919 L52.7751,319.573844 L57.3240528,319.514681 L61.9371144,319.438831 L61.9371144,319.438831 L65.0409368,319.378092 L68.1625,319.308582 L71.2975032,319.229759 L72.8687008,319.186686 L72.8687008,319.186686 L76.8031628,319.067782 L76.8031628,319.067782 L80.7401448,318.931999 L82.3137616,318.872723 L82.3137616,318.872723 L85.4560224,318.74529 L87.0235912,318.676997 L87.0235912,318.676997 L90.1489176,318.530922 C95.3451016,318.276694 100.471846,317.967861 105.43955,317.593135 L108.825083,317.330818 L111.384203,317.117529 L112.67163,317.003796 L115.255245,316.761706 L117.195131,316.566994 L119.131654,316.360682 L121.060106,316.142469 L122.338933,315.990234 L123.610687,315.832489 L124.873974,315.669143 L126.1274,315.500108 L127.985998,315.235694 L127.985998,315.235694 L129.208669,315.052048 L130.416598,314.862401 L131.608391,314.666665 L132.782652,314.464752 L133.937989,314.256571 C134.319792,314.186123 134.698209,314.114616 135.073006,314.042035 L136.461079,313.764792 L136.461079,313.764792 L137.8125,313.477305 L138.865418,313.239824 L139.891741,312.995587 L140.394494,312.870908 L140.394494,312.870908 L141.378311,312.616371 L142.332048,312.354855 L142.706622,312.24775 L142.706622,312.24775 L143.440153,312.030092 L143.440153,312.030092 L144.152254,311.807797 L144.152254,311.807797 L144.842203,311.580819 L144.842203,311.580819 L145.509274,311.349112 L145.509274,311.349112 L146.152744,311.112631 C150.362255,309.520067 152.95,307.606086 152.95,305.309109 C152.95,304.162696 151.9,303.104468 149.8,302.04624 C149.076167,301.681487 148.263112,301.327531 147.366869,300.984068 L146.679183,300.728434 C146.562001,300.686155 146.443542,300.644038 146.323819,300.602084 L145.590401,300.352299 L145.590401,300.352299 L144.827201,300.106378 L144.827201,300.106378 L144.034786,299.864293 L144.034786,299.864293 L143.21372,299.626016 C142.93532,299.547221 142.652239,299.469056 142.364571,299.391517 L141.487902,299.160769 L141.487902,299.160769 L140.584281,298.933743 C140.431463,298.896214 140.277545,298.858839 140.122539,298.821617 L139.179549,298.600121 L139.179549,298.600121 L138.211019,298.382276 L138.211019,298.382276 L137.217517,298.168054 L137.217517,298.168054 L136.199606,297.957426 L136.199606,297.957426 L135.157854,297.750365 L135.157854,297.750365 L133.551759,297.446396 L133.551759,297.446396 L132.452876,297.248126 L132.452876,297.248126 L131.332131,297.053321 L131.332131,297.053321 L129.61126,296.767553 L129.61126,296.767553 L128.438334,296.581291 L128.438334,296.581291 L127.245526,296.398397 L127.245526,296.398397 L125.420272,296.130307 L125.420272,296.130307 L123.553464,295.869633 L123.553464,295.869633 L121.647012,295.61628 L121.647012,295.61628 L120.354962,295.451398 L120.354962,295.451398 L118.386678,295.210034 L118.386678,295.210034 L115.708879,294.899189 L115.708879,294.899189 L114.348358,294.748406 L114.348358,294.748406 L112.28214,294.52795 L112.28214,294.52795 L110.187095,294.314273 L110.187095,294.314273 L108.065134,294.107277 L108.065134,294.107277 L105.19728,293.841511 L105.19728,293.841511 L101.625081,293.531143 L100.188108,293.4123 L100.188108,293.4123 L97.2916672,293.182523 L95.8332547,293.071537 L95.8332547,293.071537 L92.8986804,292.857237 L89.9439545,292.652991 C88.9561558,292.58656 87.9657013,292.52177 86.9732938,292.458585 L83.9909151,292.27381 L81.0010352,292.098453 L78.0078709,291.932302 L76.5113748,291.852613 L73.5211904,291.699876 L70.5382636,291.555816 L67.5668112,291.420221 L64.61105,291.292881 L61.6751968,291.173584 L58.7634684,291.062117 L55.8800816,290.95827 L51.6173661,290.816322 L48.8232818,290.730596 L43.3686312,290.57957 L39.4110752,290.483337 L34.3393008,290.376385 L30.7076437,290.311265 L27.2393772,290.258287 L25.025,290.229362 Z M26.6,301.252569 C27.125,303.898139 27.65,306.455523 28.175,308.924721 L31.0612048,308.90485 L34.7760509,308.866281 L37.463475,308.828687 L40.0674556,308.783997 L43.4114417,308.713893 L45.8248,308.653815 L48.9184304,308.56428 L50.4127246,308.515671 L53.9977667,308.383659 L56.0470134,308.297702 L58.6627762,308.175841 L61.7486378,308.012859 L64.0732839,307.874816 L66.2725852,307.730737 L68.3490281,307.581334 L69.8272302,307.466214 L71.238772,307.348799 L73.4460566,307.148822 L75.083925,306.985783 L76.6107454,306.820797 L77.6844812,306.696207 L78.6982,306.571222 L79.6529508,306.446142 L80.8360369,306.279739 L81.9186422,306.114411 L82.9032531,305.950869 L84,305.750037 L84,305.750037 L83.1536384,305.577453 L81.9566218,305.353282 L80.8842351,305.168059 L79.7066972,304.978375 L78.7528,304.833612 L77.0246094,304.588467 L75.9026912,304.439545 L74.7155302,304.289613 L73.0290531,304.088653 L71.6849182,303.937532 L70.271477,303.786402 L68.7875104,303.635563 L66.6970752,303.435414 L65.0438087,303.286419 L62.7232156,303.089818 L60.8940122,302.944301 L58.3344118,302.753426 L55.6342626,302.566801 L52.790675,302.385137 L50.5621146,302.252569 L48.2500256,302.123499 L45.0352,301.957349 L42.5234703,301.837586 L39.9241486,301.722314 L36.320025,301.576122 L33.5115811,301.472495 L30.6114816,301.374358 L26.6,301.252569 Z M252.7,254.955101 C251.918303,254.974425 251.149782,254.995803 250.394216,255.019183 L248.166157,255.095277 L248.166157,255.095277 L246.01449,255.183064 C242.491299,255.338945 239.280858,255.542231 236.355404,255.786323 L234.634108,255.937622 L234.634108,255.937622 L232.979876,256.098397 C212.98577,258.138433 207.989455,262.268446 206.74093,265.814342 L206.647689,266.100515 C206.633443,266.147979 206.619827,266.195324 206.606811,266.242542 L206.53571,266.52428 C206.524988,266.570966 206.514812,266.617512 206.505153,266.663912 L206.44582,266.985176 L206.401196,267.301197 L206.369184,267.611474 L206.347691,267.915512 L206.334622,268.212812 L206.32788,268.502875 L206.325,269.064805 C206.325,270.711174 207.641815,272.150177 209.976125,273.391872 L210.473506,273.645962 C210.899926,273.855364 211.355978,274.05892 211.840129,274.256684 L212.434499,274.491222 C212.637053,274.568477 212.844005,274.644808 213.055256,274.720219 L213.701809,274.943694 L213.701809,274.943694 L214.373569,275.161668 L214.373569,275.161668 L215.069949,275.374158 C215.188031,275.409118 215.307114,275.44385 215.427186,275.478354 L216.159389,275.682659 C216.283368,275.716256 216.408311,275.749627 216.534207,275.782772 L217.300907,275.978935 L217.300907,275.978935 L218.08987,276.169695 L218.08987,276.169695 L218.900506,276.355071 C219.037385,276.38552 219.175143,276.415745 219.313767,276.445747 L220.155808,276.623085 L220.155808,276.623085 L221.018049,276.79509 L221.018049,276.79509 L222.075063,276.993843 L223.159125,277.185028 L223.710984,277.277793 L223.710984,277.277793 L224.833728,277.457689 L225.981,277.630101 L227.745693,277.874762 L227.745693,277.874762 L228.949875,278.028612 L229.559904,278.102774 L230.795208,278.245589 L232.05,278.381091 L233.966523,278.570702 L233.966523,278.570702 L235.265625,278.688065 L236.580687,278.798232 L237.910701,278.901237 L239.254659,278.997114 L240.611553,279.085896 L242.668944,279.205842 L244.053768,279.277037 L246.148329,279.37076 L246.148329,279.37076 L248.260656,279.448902 L249.677064,279.492396 L251.098848,279.52905 L252.525,279.558898 L252.465142,278.612597 L252.388796,277.25377 L252.327176,275.970871 L252.265195,274.384633 L252.222849,272.948221 L252.187963,271.093075 L252.177104,269.839858 L252.175,268.712063 C252.175,264.038223 252.35,259.452569 252.7,254.955101 Z M24.325,254.425987 L24.1790816,255.879636 C24.0642857,257.102151 23.975,258.343949 23.975,259.540755 L24.7071429,259.436514 C24.9452381,259.400663 25.177381,259.363755 25.4035714,259.325932 L26.0642857,259.209866 L26.6892857,259.089171 L27.2785714,258.964705 L28.0955357,258.772812 L28.0955357,258.772812 L28.5955357,258.642669 L29.0598214,258.511754 L29.4883929,258.380925 L30.0642857,258.186718 L30.0642857,258.186718 L30.4035714,258.059853 L30.7071429,257.936073 L31.0363839,257.786992 L31.0363839,257.786992 L31.3098214,257.645745 L31.4035714,257.591815 L31.4035714,257.591815 L31.5642857,257.488946 C31.7547619,257.35651 31.85,257.243728 31.85,257.159742 L31.8425647,257.134169 L31.8195833,257.099182 L31.7800427,257.055133 L31.7229297,257.002372 L31.6472311,256.941251 L31.4966188,256.834661 L31.2984896,256.711234 L31.1383167,256.620181 L30.9544922,256.522523 L30.746003,256.41861 L30.3848066,256.251782 L30.1102229,256.133769 L29.6451354,255.947436 L29.2981248,255.817517 L28.9203704,255.683449 L28.5108589,255.545584 L28.0685773,255.404272 L27.3414944,255.186611 L26.8128546,255.03822 L26.2478984,254.887611 L25.6456127,254.735135 L25.0049843,254.581143 L24.325,254.425987 Z M172.725,214.654257 C181.475,216.682527 186.9,221.003624 186.9,225.853835 C186.9,230.448457 182.164694,234.446527 174.190347,236.591388 L173.775,236.70067 C136.17975,246.653303 102.186367,247.012122 72.9834688,237.777126 L72.1,237.494341 C65.0554545,235.243202 60.8787107,231.461918 60.7291579,227.2355 L60.725,227.000248 C60.725,224.178307 62.475,221.620923 65.975,219.416282 C91.7,203.542864 139.475,206.893919 172.725,214.654257 Z M76.3,223.737379 C74.80375,224.658919 73.93925,225.819222 73.8565406,226.991463 L73.85,227.17662 C73.85,229.20489 75.775,230.968603 79.1,232.026831 C104.0375,240.0554 133.430702,239.793598 166.601254,231.241427 L167.65,230.968603 C171.5,229.998561 173.775,228.058476 173.775,225.94202 C173.775,223.709531 171.452251,221.811463 167.45293,220.817653 L167.125,220.739067 C120.925,209.892231 89.425,215.536113 76.3,223.737379 Z M220.15,163.24202 L219.605421,163.627644 L219.220318,163.893124 L218.817245,164.165163 L218.178321,164.585225 L217.497369,165.019282 L216.773432,165.466878 L216.005553,165.927553 L215.46875,166.241711 L214.62551,166.723168 L214.03758,167.050757 L213.116322,167.551725 L212.475494,167.891896 L211.473559,168.411102 L210.778061,168.763008 L209.692793,169.29918 L208.55625,169.844921 L207.769596,170.213839 L206.959443,170.58667 L205.699537,171.152957 L204.829401,171.534979 L203.934774,171.920439 L203.015375,172.309202 L202.070918,172.701133 L200.606633,173.294671 L199.598295,173.693926 L198.563908,174.095874 L197.503189,174.500378 L196.415854,174.907304 L194.734328,175.521935 L193.579214,175.934319 L192.396492,176.348649 L191.18588,176.76479 L189.317045,177.392099 L188.035464,177.812173 C187.603472,177.952427 187.166667,178.092905 186.725,178.233582 L195.825,178.233582 C202.3,178.233582 207.725,180.879151 207.725,184.230206 C207.725,187.581261 202.475,190.226831 195.825,190.226831 L49.875,190.226831 L49.7738933,190.267239 L49.5587285,190.360649 L49.3267643,190.471281 L49.078563,190.599649 L48.8146873,190.746269 L48.5356996,190.911656 L48.2421626,191.096326 L47.9346388,191.300794 C47.8298622,191.372307 47.7228482,191.447205 47.6136906,191.525575 L47.2798808,191.771186 L46.9337717,192.038141 L46.5759259,192.326956 L46.2069061,192.638146 L45.7307746,193.059383 L45.7307746,193.059383 L45.2391613,193.517394 L44.835462,193.910956 L44.42312,194.329213 L43.8963957,194.887545 L43.8963957,194.887545 L43.358145,195.486275 C43.0681995,195.816549 42.7738048,196.164488 42.475711,196.530781 L42.0258897,197.09407 C41.875087,197.286479 41.7234532,197.483561 41.5710822,197.685404 L41.1118511,198.305298 C40.8812234,198.622471 40.6491478,198.950547 40.4159407,199.289817 L39.9481117,199.983366 L39.4778279,200.707279 C38.4566268,202.309025 37.4221014,204.128213 36.4,206.188434 C41.4575,206.038518 46.7959722,205.463842 52.5427907,204.656963 L54.5882426,204.362854 L56.66885,204.051343 L58.7858574,203.724311 L62.0323407,203.208778 L73.1683741,201.402412 L75.9377103,200.964441 L78.7688588,200.527463 L81.6641758,200.094074 L83.1366337,199.879538 L85.3771483,199.561344 L87.6567396,199.248456 L89.1986673,199.043353 L90.7586988,198.84142 L93.1333348,198.545175 L94.7399141,198.352587 L96.3656281,198.164306 L98.0107711,197.980656 L100.515559,197.714574 L102.210564,197.543922 L103.926028,197.379037 L105.662246,197.220243 L107.419514,197.067867 L109.198125,196.922231 L110.998374,196.783662 L112.820555,196.652483 L114.664964,196.529019 L116.531894,196.413595 L118.42164,196.306536 L121.299683,196.16234 L121.299683,196.16234 L123.247758,196.077613 L125.219679,196.002386 L126.214675,195.968436 L126.214675,195.968436 L128.222919,195.908069 L130.255746,195.858015 L132.313451,195.818597 L134.396328,195.790141 C135.094849,195.782519 135.797614,195.776778 136.504672,195.772972 L138.638778,195.767414 L139.715583,195.76909 L139.715583,195.76909 L141.888882,195.781557 C143.710965,195.797077 145.560649,195.825537 147.438701,195.867784 L149.706031,195.92515 L150.85,195.958898 C151.924706,195.990022 152.988294,196.02598 154.040972,196.066562 L156.131844,196.153829 C157.170068,196.200483 158.197521,196.251622 159.21441,196.307036 L161.234164,196.423502 L163.226119,196.550996 L165.190641,196.689146 L167.128102,196.837579 L168.0868,196.915536 L168.0868,196.915536 L169.984361,197.078697 L171.855782,197.251212 L173.701435,197.432708 L175.521687,197.622812 L177.316909,197.821153 L179.087469,198.027359 L181.266552,198.295608 L181.266552,198.295608 L183.4084,198.574837 L185.095554,198.805637 L186.759708,199.042627 L188.401231,199.285434 L190.020494,199.533686 L192.408457,199.91546 L192.408457,199.91546 L194.74841,200.307391 L197.0416,200.708225 L197.79582,200.843597 L197.79582,200.843597 L200.028598,201.254345 L201.492675,201.531572 L203.653053,201.951574 L205.771653,202.375452 L207.161459,202.659572 L209.2132,203.087121 L211.226487,203.515197 L213.853206,204.084615 L223.768459,206.283713 L226.400448,206.857878 L228.968835,207.405782 L230.648674,207.754851 L232.304618,208.089832 L233.124176,208.251737 L233.124176,208.251737 L234.747557,208.563773 C244.427528,210.38744 253.053302,211.319841 262.325,210.421345 L262.745,209.368761 C262.955,208.848113 263.165,208.340164 263.375,207.863961 C263.375,207.775776 263.55,207.599404 263.55,207.511219 C261.901744,207.132841 260.324402,206.72742 258.819778,206.29607 L257.827488,206.004673 L256.856863,205.705667 L255.908023,205.399123 C255.595386,205.295694 255.2864,205.191021 254.981085,205.085117 L254.076168,204.76372 C244.094666,201.133796 238.25436,196.135269 237.3,190.226831 C232.225,189.521345 228.55,187.228518 228.55,184.494763 C228.55,181.231894 233.8,178.498139 240.45,178.498139 L242.2,178.498139 L242.361019,177.902362 L242.525895,177.269071 L242.694628,176.597675 L242.867218,175.887586 L243.133333,174.748615 L243.315565,173.939217 L243.501653,173.089065 L243.691598,172.19757 L243.885399,171.264142 L244.183333,169.78409 L244.489945,168.206377 L244.805234,166.529016 L245.020248,165.354435 L245.35,163.506577 L220.15,163.506577 L220.15,163.24202 Z M274.225,190.226831 L250.425,190.226831 C251.360864,193.685221 254.938153,197.143611 263.387257,199.852712 L264.294726,200.135081 C264.603278,200.228259 264.917924,200.320483 265.238761,200.41172 L266.203817,200.678118 L266.7,200.809109 L266.7,200.809109 C268.975,196.752569 271.425,193.225143 274.225,190.226831 Z" id="Shape"></path>
        </g>
    </g>
</svg>