<?xml version="1.0" encoding="utf-8"?>
<!-- Generator: Adobe Illustrator 22.1.0, SVG Export Plug-In . SVG Version: 6.00 Build 0)  -->
<svg version="1.1" id="Layer_1" xmlns="http://www.w3.org/2000/svg" xmlns:xlink="http://www.w3.org/1999/xlink" x="0px" y="0px"
	 viewBox="0 0 12 12" style="enable-background:new 0 0 12 12;" xml:space="preserve">
<style type="text/css">
	.st0{fill:#92CBEF;}
</style>
<title>cell-changed</title>
<g id="Layer_2_1_">
	<g id="Layer_1-2">
		<path class="st0" d="M11.1,0H0.9C0.4,0,0,0.4,0,0.9v10.3C0,11.6,0.4,12,0.9,12h10.3c0.5,0,0.9-0.4,0.9-0.9V0.9
			C12,0.4,11.6,0,11.1,0z M11.1,11.1H0.9V0.9h10.3V11.1z M3.4,6c0-1.4,1.2-2.6,2.6-2.6S8.6,4.6,8.6,6S7.4,8.6,6,8.6l0,0
			C4.6,8.6,3.4,7.4,3.4,6z"/>
	</g>
</g>
</svg>
