<?xml version="1.0" encoding="utf-8"?>
<!-- Generator: Adobe Illustrator 22.1.0, SVG Export Plug-In . SVG Version: 6.00 Build 0)  -->
<svg version="1.1" id="Layer_1" xmlns="http://www.w3.org/2000/svg" xmlns:xlink="http://www.w3.org/1999/xlink" x="0px" y="0px"
	 viewBox="0 0 14 15" style="enable-background:new 0 0 14 15;" xml:space="preserve">
<style type="text/css">
	.st0{fill:#2295F3;}
</style>
<title>clippy</title>
<g id="Layer_2_1_">
	<g id="Layer_1-2">
		<path class="st0" d="M2,12h4v1H2V12z M7,6H2v1h5V6z M9,9V7l-3,3l3,3v-2h5V9H9z M4.5,8H2v1h2.5V8z M2,11h2.5v-1H2V11z M11,12h1v2
			c0,0.3-0.1,0.5-0.3,0.7C11.5,14.9,11.3,15,11,15H1c-0.6,0-1-0.4-1-1V3c0-0.6,0.4-1,1-1h3c0-1.1,0.9-2,2-2s2,0.9,2,2h3
			c0.6,0,1,0.4,1,1v5h-1V5H1v9h10V12z M2,4h8c0-0.6-0.4-1-1-1H8C7.4,3,7,2.6,7,2S6.6,1,6,1S5,1.4,5,2S4.6,3,4,3H3C2.4,3,2,3.4,2,4z"
			/>
	</g>
</g>
</svg>
