<svg xmlns="http://www.w3.org/2000/svg" viewBox="0 0 14 15"><defs><style>.cls-1{fill:#616161;}</style></defs><title>clippy</title><g id="Layer_2" data-name="Layer 2"><g id="Layer_1-2" data-name="Layer 1"><path class="cls-1" d="M2,12H6v1H2ZM7,6H2V7H7ZM9,9V7L6,10l3,3V11h5V9ZM4.5,8H2V9H4.5ZM2,11H4.5V10H2Zm9,1h1v2a1,1,0,0,1-.3.7,1.09,1.09,0,0,1-.7.3H1a1,1,0,0,1-1-1V3A1,1,0,0,1,1,2H4A2,2,0,0,1,8,2h3a1,1,0,0,1,1,1V8H11V5H1v9H11ZM2,4h8A1,1,0,0,0,9,3H8A1,1,0,0,1,7,2,1,1,0,0,0,5,2,1,1,0,0,1,4,3H3A1,1,0,0,0,2,4Z"/></g></g></svg>