<svg xmlns="http://www.w3.org/2000/svg" viewBox="0 0 90.04 90.82"><defs><style>.cls-1{fill:none;stroke:#616161;stroke-miterlimit:10;stroke-width:6px;}.cls-2{fill:#616161;}</style></defs><title>comment</title><g id="Layer_2" data-name="Layer 2"><g id="Layer_1-2" data-name="Layer 1"><path class="cls-1" d="M27.24,87.82a4.69,4.69,0,0,1-4.63-4.66V68.92l-3.73,0A16,16,0,0,1,3,52.83l.22-34A16,16,0,0,1,19.29,3l51.87.33A16,16,0,0,1,87,19.41l-.22,34A16,16,0,0,1,70.74,69.23l-22.89-.14L30.57,86.44A4.62,4.62,0,0,1,27.24,87.82Z"/><circle class="cls-2" cx="25.42" cy="36.66" r="6.3"/><circle class="cls-2" cx="44.48" cy="36.78" r="6.3"/><circle class="cls-2" cx="63.54" cy="36.9" r="6.3"/></g></g></svg>