<svg xmlns="http://www.w3.org/2000/svg" viewBox="0 0 32 36.88"><defs><style>.cls-1{fill:#2295f3;}</style></defs><title>filter-highlight</title><g id="Layer_2" data-name="Layer 2"><g id="Layer_1-2" data-name="Layer 1"><path class="cls-1" d="M18.5,18a3.23,3.23,0,0,1,.62-1.75L28.33,4.73a.81.81,0,0,0-.66-1.32H4.37A.83.83,0,0,0,3.7,4.76L13,16.4a2.73,2.73,0,0,1,.52,1.47V33a.55.55,0,0,0,.82.54l3.56-1.39a1,1,0,0,0,.62-.9Zm3.42,12.05c0,3.38,0,3.38-3.13,4.63L14,36.48c-2.23.65-3.89,1.23-3.95-4.59V18.37L.93,6.61A4,4,0,0,1,4.15,0h23.7a4,4,0,0,1,3.22,6.61L21.92,18.37Z"/></g></g></svg>