<svg xmlns="http://www.w3.org/2000/svg" viewBox="0 0 12.08 12.02"><defs><style>.cls-1{fill:#8ccced;}</style></defs><title>ghost-book</title><g id="Layer_2" data-name="Layer 2"><g id="Layer_1-2" data-name="Layer 1"><path class="cls-1" d="M9.06,9.65,7.81,8.08a.2.2,0,0,0-.26,0L6.17,9.85a.2.2,0,0,1-.26,0L4.53,8.08a.2.2,0,0,0-.26,0L3,9.65a.18.18,0,0,1-.33-.13V5.19A3.08,3.08,0,0,1,5.71,2h.66a3.09,3.09,0,0,1,3,3.15v4.4C9.39,9.72,9.19,9.78,9.06,9.65Z"/><path class="cls-1" d="M11.1,1V11.1H1V1H11.1m1-1H0V12H12l.07-12Z"/></g></g></svg>