<svg xmlns="http://www.w3.org/2000/svg" viewBox="0 0 350 360">
  <path fill-rule="nonzero" d="M305.47188 0c5.84159 17.7574 2.14145 39.38545-11.10041 64.88417-11.8438 22.80657-29.10644 45.41865-51.78794 67.83624l-.31516 2.21034-.3207 2.13668-.22416 1.43097-.2386 1.47272-.25307 1.51451-.2675 1.5563-.28196 1.59812-.45003 2.47562-.31808 1.70274-.33254 1.74462-.15073.77297 18.694.00096c3.18043 0 6.20076.64547 8.2952 1.78206l.2798.15802c2.275 1.2346 3.325 2.82194 3.15 4.49747l-.30725 2.00958-.30684 1.92541-.20412 1.23727-.30524 1.787-.30373 1.70506-.20144 1.09158-.3003 1.57033-.19879 1.00253-.29573 1.43789-.19535.91501-.19376.88044-.19206.8461-.28463 1.20533-.18726.76135-.18513.72787-.18287.69465-.1805.66167h36.4c34.64212 1.054 44.1878 45.90346 46.8005 72.35272l.1641 1.73534c.05142.5689.0996 1.12804.14477 1.67673l.1266 1.61402.10967 1.54721.0939 1.47632.0939 1.6787.07485 1.5627.03093.7356.07 2.01305.03025 1.17164.02602 1.48397.00951 1.13428v.2962c0 23.01646-4.025 44.62194-11.2 61.02447-8.75 19.84178-21 29.45401-37.8 29.45401H49c-36.0094 0-45.5789-46.481-48.10417-73.12604l-.15979-1.76549a210.6136 210.6136 0 01-.0723-.8588l-.13025-1.66687-.11221-1.59548-.0955-1.51958-.08008-1.43916-.09257-1.96082-.06633-1.76278-.03698-1.25798-.02502-1.1147-.01981-1.38727L0 268.71207c0-23.01646 4.025-44.62195 11.2-61.02448 8.75-19.84177 21-29.454 37.8-29.454h82.425l1.87746-.3416 1.84584-.3432 1.81446-.3447 1.78333-.34606 1.75244-.34732 1.72181-.34846 1.69143-.34948 2.4807-.52588 1.61654-.35152 1.58702-.35212 2.32571-.52908 1.5143-.35314 1.48566-.35334 1.45725-.35342 1.42908-.35338 2.09139-.52975 2.02942-.52901 1.31894-.35207 1.92801-.52689 1.25212-.35029 1.82893-.52367 1.7706-.52121 1.1484-.34591 1.67524-.51624 1.61913-.51271 2.07301-.67747 1.49148-.50297.96464-.33265.9412-.33038.918-.328 1.33403-.48726.86108-.32152 1.24982-.477 1.2004-.47031.77324-.30963 1.11992-.45829 1.07273-.45054 1.02639-.4424.98088-.43386.9362-.42492 1.05744-.49367c.51343-.24341 1.00408-.48162 1.47277-.71424l.9083-.45768.43261-.22305.82305-.43408.76798-.41752.71432-.40028.97396-.56663.86115-.5241.5138-.32464.46719-.30407.6165-.41605.51957-.36598.42741-.31365.34003-.25907.51569-.40685c1.75-2.20464 5.95-3.52742 10.85-3.52742l16.585-.00096.13858-.69608.50536-2.61316.31891-1.68924.30453-1.64691.29014-1.60458.27574-1.56221.26136-1.51984.24696-1.47744.23257-1.43503.21818-1.3926.53115-3.59112.545-3.90444.67985-5.08459.83797-6.49936.16354-1.30854c-22.2354-16.15689-38.16027-33.18246-47.77463-51.07672l-3.39907-6.33741-5.59032-10.48595-3.78866-7.17764-2.66144-5.10423-1.80466-3.51452-.9025-1.78623-.74572-1.50057-.44184-.90574-.38095-.79683L168 25.9371c21.62542 8.57138 38.78116 21.33706 51.46722 38.29704 9.2215 12.32823 16.77715 26.1715 22.66695 41.5298 5.24027-17.6801 12.0726-33.05379 20.49607-46.12121C276.18632 38.61303 290.46687 18.73213 305.47188 0zM266.7 336.7032l-1.09123.0284-2.16996.06347-2.15312.07224-2.13604.0809-2.11876.08937-2.10125.09774-2.08351.10594-2.06557.114-2.04739.12192-3.03653.19742-2.001.14109-1.98204.1485-2.93706.23636-1.93372.16641-1.914.17333-1.89405.1801-1.8739.18673-1.85352.1932-1.8329.19955-1.8121.20574-1.79104.21179-1.76978.2177-1.7483.22345-1.72658.22908-1.70466.23455-1.6825.23988-2.48176.3695-1.62617.25259-1.60325.2574-1.5801.2621-1.55675.26664-1.53316.27103-1.50935.27528-1.48532.2794-1.46108.28335-1.43661.28719-1.41193.29086-1.387.29439-1.36189.29778-1.33653.30103-1.31096.30413-1.918.4617-1.24606.31127-1.21971.31385-1.19315.31632-1.16636.31863-1.13935.3208h89.95c-2.8-3.0865-5.425-6.61393-7.525-10.4941zM138.55045 202.40141l-2.13314.00605a350.72507 350.72507 0 00-4.187.04942l-2.05447.04261-2.0289.05406-2.0036.0651c-.6637.02352-1.32322.0488-1.97864.0758l-1.95399.08611-1.92963.09604-2.8495.16184-2.79647.18208-1.83538.132-1.8126.14005-1.79012.14771-1.76796.15502-1.74611.16193-1.72458.16848-1.70336.17465-1.68244.18044-1.66185.18585-1.64155.1909-2.42498.29496-1.5922.20184-2.35242.30962-1.5448.21044-1.52639.21322-2.25573.32422-2.21606.32836-2.17743.33123-3.54609.55497-2.765.44322-2.03347.33-6.48741 1.0654-2.51647.40769-2.4901.39398-2.46542.37742c-8.99673 1.35007-17.53003 2.309-25.97519 2.24642-.175.26456-.175.52912-.35.79368-2.275 6.52573-4.375 14.02151-5.95 22.0464 6.301.53979 11.55838 1.46828 16.0989 2.62493l1.16844.3068c1.1526.31177 2.25836.63812 3.32307.9762l.98828.32094a79.7274 79.7274 0 01.9652.32733l.94318.33317a82.33345 82.33345 0 011.37584.50958l.89283.3455.87455.3495.85736.353.84121.35596.82615.3584.81215.3603 1.19431.5429 1.16883.54423 1.9012.90526 1.1185.53917 1.8897.90187 1.20173.56617 1.51772.6998.9229.41452.93483.4097.949.40424.96538.39812.6538.2617.66274.2585 1.01233.38135.68798.24967.69925.2458.71116.24174.72374.23749.73698.23304.75088.2284.76544.22358.78067.21856.79656.21334 1.22606.30981.83917.19947 1.07463.24104 1.10436.23147.90577.17802.92628.17148.47104.08321 1.44572.23929.9918.15064 1.01497.14333.51638.06885 1.05095.13197 1.07577.12417 1.10124.11617 1.12739.10798 1.15419.0996 1.18165.09102 1.20977.08225.61564.03778 1.2532.06875 1.28299.0595 1.31342.05007c.44295.01509.89109.02858 1.34452.04043l1.37628.03061a187.464 187.464 0 001.40871.0206l1.4418.01039.73351.0013c.68793 0 1.36775-.00157 2.03974-.0047l1.99282-.014 1.94765-.02318.95744-.01499 1.88322-.0367 1.84247-.04555 2.69116-.08464 1.74832-.06712 1.71376-.0755 1.68094-.08378 1.6499-.09191 2.42052-.15283 1.58002-.11168 1.55516-.11936 1.53207-.12691 1.51073-.13433 1.49117-.14162 1.47336-.14878 2.18052-.2363 2.1504-.25168 1.41981-.17612 1.41083-.18262 1.40362-.189 1.39817-.19524 1.3945-.20137 2.08869-.31323 1.39301-.2161c3.5-.5291 7.175.44093 8.225 2.20465 1.05 1.76371-.875 3.6156-4.375 4.14472l-1.44393.21455-2.14883.31115-2.12357.2967-2.12874.28537-1.42479.18368-1.43122.17824-1.4393.17265-1.44902.1669-1.46041.16098-1.47344.1549-1.48813.14869-1.50446.14228-2.29092.2011-2.33696.18581-1.5863.11512-1.6109.10794-2.46605.14808-2.53066.13101-1.72576.0776-2.65073.10136-2.7302.08286-1.86704.0447-1.90648.03607-1.94758.0273-3.00203.02412-2.05755.00464c-3.1325 0-6.08125-.06173-8.86305-.17831l-1.64918-.07648-1.60992-.0893-.79049-.04937-1.55254-.10795-1.51529-.11995a148.72991 148.72991 0 01-2.20487-.20172l-1.4257-.14853a133.97077 133.97077 0 01-2.07427-.24304l-1.34116-.17504-1.30876-.18507-1.27715-.19477a113.99511 113.99511 0 01-1.24636-.20413l-1.21637-.21317a105.76084 105.76084 0 01-1.77009-.33598l-1.14493-.23433a98.37006 98.37006 0 01-1.6667-.36615l-1.07853-.25341-1.05338-.26046-1.02903-.2672-.50564-.136-.99404-.27666a88.0546 88.0546 0 01-.9717-.28256l-.95018-.28813-.46727-.14605-.91942-.29587-.8999-.30061-.88122-.30503-.86332-.30911-.84623-.31287-.82995-.31629-1.21617-.48013-1.18408-.48598-1.15471-.49072-.75483-.32922-1.1118-.49613-1.0897-.4979-1.42323-.66466L53.025 250.634c-.85556-.41153-1.70247-.8187-2.54962-1.21911l-1.27202-.59523-.8515-.39027-.8566-.38441-1.08092-.47146-1.09582-.46041-.88997-.35967-.90395-.35139a66.79132 66.79132 0 00-.9199-.34257l-.93783-.33322c-4.4214-1.53235-9.4928-2.74155-16.11687-3.3817-.175 1.67552-.525 3.43923-.7 5.11476l1.61018.27427 1.27627.23504 1.21806.24056.93339.19619.45324.09928.87996.20081.84516.20369.81101.20637.77752.20888.74469.21122.7125.21337c.23222.07146.45918.14325.68099.21534l.65011.21715.6199.21876.59033.22021.56144.22148.53318.22256.5056.22348.47864.2242c.07757.03742.15404.07486.22943.11232l.43947.22498.2102.1126.40177.22534.19173.11268.36553.2253.3422.22506.31952.22463a11.0937 11.0937 0 01.2975.22403l.27612.22325.13025.11128.2453.22175c.15688.14745.30061.29408.43206.43966l.18807.21755.1703.21579.0787.10718.14488.21282c.02278.03529.0449.0705.06635.1056l.12094.20945a4.49172 4.49172 0 01.1058.20699l.0913.20434.07746.20151.06429.19852.07315.29176.04103.23723.02427.2315.00822.18085.0006.0889-.01125.2604-.02912.25045-.02824.16114c-.51042 2.41776-3.58142 4.53544-8.41408 6.10798l-.70227.22091-.72573.21334c-.36864.10475-.74588.2066-1.13143.30546l-.78209.1937a53.98737 53.98737 0 01-1.21354.27527l-.83522.17307-.42526.08335-.86554.16023-.8851.15146-.90416.14254-.9227.13345-.9407.1242-.9582.11481-.97518.10525a86.91088 86.91088 0 01-.4938.04899v3.26287h9.8c3.675 0 6.475 1.49915 6.475 3.26287 0 1.76371-2.975 3.26287-6.475 3.26287h-9.8c.04375.6173.07656 1.2346.10664 1.8519l.09023 1.8519c.06563 1.2346.15313 2.4692.32813 3.7038l3.06566.02929 4.6414.06074 3.85796.06406 4.14803.08187 5.1664.12033 3.88117.10377 4.84016.1457 5.01149.17047 2.56071.09506 4.33648.17375 4.40735.19376 3.56537.1701 3.0954.15694 2.5771.13673 2.53967.14116 2.5022.14562 3.683.22675 2.4084.15672 2.37082.16117 3.48569.25009 2.27672.17228 2.23901.17672 2.2013.18117 3.2311.28008 2.1068.19228 3.08923.29676 3.00396.30675 1.9552.21006 1.91722.2145 1.8792.21895 1.84115.2234.9063.11335 2.6617.34676 1.7268.23673 2.51857.36342 1.63126.24783 1.98526.31605 1.9254.323.75337.13113 1.47798.26562a187.302 187.302 0 011.43957.27006l1.40114.2745 1.36266.27895c.67171.14058 1.32898.28284 1.97179.42676l1.26634.29006c1.24704.29228 2.4362.59123 3.56733.89684l1.11178.30784 1.07305.31229c3.16104.94351 5.79885 1.94703 7.90935 3.01055 4.725 2.38101 7 5.02658 7 8.0249 0 11.54724-28.1986 16.74808-61.95489 19.0876l-2.71193.18113a584.9727 584.9727 0 01-2.73307.16931l-2.75163.1579a663.0537 663.0537 0 01-2.76761.14688l-2.78102.13626-2.79186.12603-2.8001.1162c-.46724.01857-.9347.03675-1.40235.05454l-2.80767.1022a900.8922 900.8922 0 01-1.40468.04776l-2.80942.0891-2.80738.08085-2.80275.073c-.4666.01154-.9329.02276-1.39884.03369l-3.53114.07728-3.51232.06647-3.48827.05646-3.459.04725-3.4245.03885-3.38476.03125-4.99125.03439-4.87248.02182-4.73608.01196.43526.98887.43658.95988c.43712.9455.8757 1.84807 1.3142 2.70934l.43842.84757.43801.8204.43727.79361.43618.76718.43474.74112.43296.71542c.072.11712.1439.23318.2157.3482l.42965.67756c.1428.2217.28515.43928.427.65278l.42403.62837.4207.60433.41701.58064.413.55733.20488.27003.40633.52305.501.62234.49272.58807.38774.44625.38166.42513.37523.40439.36845.384.36134.36398.35387.34434.34607.32504.17.15541.33371.29681.32505.27844.31603.26044.30667.2428.29698.22554.28693.20863.27653.1921.2658.17592.37783.23438.23747.1371.3337.17786.20696.10057.19417.0866.09217.03818h112c6.94575-3.27786 15.8884-6.06571 26.04578-8.38284l1.75302-.39261 1.77594-.38342c1.48926-.31568 3.00148-.6218 4.5344-.91842l1.84927-.35139 1.86826-.34227a305.59739 305.59739 0 011.88636-.3332l2.11614-.3596 2.1362-.34843 2.15508-.33731 2.17274-.32622a370.58972 370.58972 0 012.18921-.31515l2.20448-.3041 1.1076-.14793 2.22512-.28761 2.2374-.27665 2.24845-.26571a435.61265 435.61265 0 012.25831-.25481l2.26698-.24394a455.75498 455.75498 0 012.27444-.23309l2.28069-.22227 2.28575-.2115 2.2896-.20072 1.14588-.09635 2.29314-.18465c.38229-.02989.76462-.05933 1.14696-.08832l2.29397-.16865 1.1467-.08033 2.29209-.1527 1.14509-.07237 2.28751-.13682a511.04112 511.04112 0 013.42236-.18547l3.40806-.16183 2.2621-.0948 2.25274-.08438 2.24218-.07397c-1.575-3.52743-2.975-7.31941-4.025-11.0232l-1.12367.0083-2.20839.0226-2.15735.03046-2.10736.0382-2.0584.04581-2.01051.0533-1.96365.06065-1.91784.06788-1.87307.07497-1.82936.08194-1.7867.08879-1.74506.0955-1.70449.10207-1.66495.10853-1.62648.11485-1.58904.12106-1.55264.12712-1.5173.13306-1.48301.13888-1.44976.14456-1.41755.1501-1.3864.15555-2.02345.2432-1.31308.16853-1.28558.17352-1.25913.17836-1.23373.18308-1.20938.18768-1.77069.28983-1.15307.19859-1.69113.3056-1.1033.2087-1.62138.32016-1.06007.218-1.56145.33353-1.02338.2265-1.51133.34568-1.48596.35238-1.46412.35867-.9657.24238-2.38554.61649-1.41686.37646-2.34867.637-4.09002 1.13097-3.85818 1.10126-2.64395.73785-2.03427.55326-1.38512.36811-1.41104.3671-1.43938.36575-1.4701.36401-1.88448.45205-1.9409.44808a225.9071 225.9071 0 01-1.59648.35515l-1.63798.3518-1.68186.3481-1.72816.34403-1.77683.3396-.90742.16804-1.85433.3323c-1.56773.27475-3.1924.54396-4.88023.80668l-2.05613.3121-1.71157.24799-1.16465.16283-1.78333.24036-2.44762.31295-1.88974.2288-1.93746.22353-1.98645.21806-2.03673.21241-2.79602.27408-1.43332.133-2.19516.19428-2.25052.18787-2.30715.18125-2.36504.17445-2.42423.16745-1.64965.10765-2.52567.15537-2.58824.14786-2.65208.14017-3.6376.17459-1.86315.08189-1.89323.07822-2.89703.1103-2.96682.10172-3.03786.09294-3.11018.08397-2.11426.0509-3.23354.0686-2.19768.04047-2.23171.0362-2.26611.03187-3.4645.03958-3.54403.02952-3.62483.01927-3.7069.00884c-.4165.0004-.83452.00059-1.2541.00059-3.675 0-6.475-1.49916-6.475-3.26287 0-1.76371 2.975-3.26287 6.475-3.26287l4.52036-.00766 2.21111-.0095 5.38737-.04004 3.13783-.03495 4.07578-.05908 3.95483-.07304 2.88837-.06374 3.74966-.09668 2.7376-.0811 2.67487-.0883 3.4709-.12873 3.36413-.14096 3.26005-.15288 2.37836-.1223 3.0844-.17295 2.24974-.13696 2.1965-.14303 2.1444-.14896 2.09346-.15473 2.04364-.1604 1.99496-.1659 2.5174-.2232 2.07875-.19661 2.02427-.20275a347.20064 347.20064 0 001.97131-.2087l1.9199-.21445c.31578-.0362.62948-.07265.94114-.10933l1.84561-.22275c.3036-.03758.6052-.07537.90487-.11338l1.77478-.23064c.29198-.03886.58207-.07794.8703-.11721l1.70738-.23811 1.66436-.24285c.27389-.04086.54605-.08192.81652-.12315l1.8814-.29414 1.82749-.30002 1.77609-.3056a225.59984 225.59984 0 003.4079-.62678l1.63679-.32057.80269-.16195 1.57552-.32703a217.45984 217.45984 0 001.5378-.33097l2.24137-.50317 1.45433-.33949 1.42531-.34237 1.39876-.34495 2.05382-.52162 1.34328-.35009 1.98224-.52792 2.59505-.70749 7.0378-1.94926 3.22026-.87434 1.62595-.4315 1.6424-.42684 1.66325-.42156 1.12261-.2778 1.13517-.27495 1.14902-.27195 1.1642-.26874 1.18067-.26534 1.80478-.39123 1.2276-.25602 1.24869-.25195 1.27105-.2477 1.9514-.36316 1.33274-.23623 2.05006-.34506 1.4026-.22357 1.43284-.21817.72817-.107 1.48065-.20973 2.28424-.30351 1.5669-.19468.79717-.09498 1.62258-.18508.82574-.09007 1.68121-.17506a271.90222 271.90222 0 011.72193-.16814l1.76397-.16104a299.75636 299.75636 0 012.72763-.2278l1.87478-.14241c.31632-.0231.63457-.04586.9548-.0683l1.9452-.13069c.32821-.0211.65845-.04189.99074-.06232l2.01857-.11852 2.06913-.11016 2.12099-.10163 2.17416-.09289 2.22864-.08397 2.28443-.07486 1.16355-.03396 2.37058-.06084 2.42965-.05125 1.23739-.02197 2.5207-.0365a609.7337 609.7337 0 011.28366-.0145c-.81667-3.01791-1.4216-5.98247-1.9795-8.93518l-.4705-2.52896-2.41233-.0385-2.36456-.04796-2.3177-.05728-2.27176-.06642-2.22674-.0754-1.09678-.04101-2.16093-.08855a436.36253 436.36253 0 01-1.06439-.0475l-2.09718-.10132-2.05584-.10964-2.0154-.1178-1.9759-.12576-2.41569-.16818-2.35718-.18007-.92689-.07528-1.82701-.15604-1.7921-.16318-1.75808-.17017a301.52395 301.52395 0 01-.86657-.08766l-2.55124-.27298-1.66157-.19013-1.63124-.19645-1.60181-.20261a263.99918 263.99918 0 01-1.57332-.2086l-1.54574-.21443-1.51907-.22008-1.49333-.22558-1.4685-.2309-1.44458-.23607-1.4216-.24106-1.39952-.24589-1.37836-.25055-1.35813-.25505-1.3388-.25938-1.3204-.26355-1.30291-.26755-1.28635-.27138-1.2707-.27505-1.25596-.27855-1.85834-.42403-1.83035-.43098-1.20621-.2909-2.38293-.58966-1.76498-.44846-2.90852-.75763-2.30527-.61377-2.52063-.68063-5.9876-1.63017-3.45462-.92992-2.04728-.54162-2.07336-.53869-2.10495-.53484-1.42357-.35398-1.4417-.3516-2.2001-.52232-1.49415-.34445-1.51799-.34111-1.54345-.33751-2.36651-.49892-1.61427-.32732-1.64546-.32277-1.67827-.31794-.85196-.15708-1.73055-.3102-1.76746-.30472-.89807-.1502-1.82587-.29596-1.86684-.28977a291.1568 291.1568 0 00-2.88067-.4225l-1.97644-.27316a310.97301 310.97301 0 00-2.02313-.26603l-2.07145-.25864-2.12141-.25098-2.173-.24304-2.22623-.23484c-3.38008-.34596-6.9453-.66332-10.72045-.94796l-2.54814-.18487c-3.43971-.2399-7.04966-.45324-10.84725-.63712l-2.88364-.13233a614.3373 614.3373 0 00-4.46098-.1772l-3.0667-.10353-2.61364-.07713-2.66741-.06863a737.79497 737.79497 0 00-1.35417-.0311l-2.74985-.0556a787.27011 787.27011 0 00-1.39592-.0245l-2.83441-.04223a848.65799 848.65799 0 00-2.89198-.03313l-3.54767-.0275-2.71702-.0117-2.76602-.00392c-3.675 0-6.475-1.49916-6.475-3.26287 0-1.76371 2.975-3.26287 6.475-3.26287l3.45617.00594 3.38389.01768 3.3128.0292 3.2429.04054 3.17425.05164 3.10677.06255 2.03429.04765 2.997.08027 2.93273.09061 1.92006.06606 2.82831.1074 2.76728.1172 1.81153.08347 2.6682.13306 1.7466.09385 1.72126.0979 2.53514.1543 2.48012.16305 2.4263.1716 2.3737.17993 2.32228.18806 2.27208.19598 1.48743.13495 1.46601.13832 2.15963.21366 1.41402.14647 2.08333.22558 1.36427.15423 2.38847.28281c3.14456.3833 6.13061.79114 8.97985 1.21977l2.11161.32531c2.78218.4388 5.43296.89744 7.97403 1.3722l1.88557.35902 1.84646.36472.9092.18438 1.7916.3726 1.75757.3774 1.72558.38186 1.69562.38597 1.66768.38972 1.6418.39314 1.61792.39618 1.59609.3989 1.5763.40123 2.33176.6055 3.0587.81229 9.78685 2.6583 3.0901.82804 2.64558.69337 2.1401.5467 2.1682.53837 1.64857.39762 1.11125.26188 1.12198.25916 1.70486.38333 1.15237.25174 1.16597.24852 1.77624.36642 1.20354.23985 1.22001.23613 1.2373.23228 1.2554.22827 1.27435.22413 1.29408.21985 1.31466.21542 1.33604.21086 1.35826.20615 1.38129.20129 1.40514.1963 1.42981.19117 1.4553.18588 1.48163.18047 1.50875.1749 1.53671.16921 1.56549.16336 1.59508.15737 1.6255.15124 1.65673.14497 1.6888.13856 1.72166.132 1.75537.12531 1.78989.11847 1.82523.11149 1.86139.10436 1.89837.0971 1.93617.0897 1.9748.08214 3.0364.10875 3.12792.09097 2.13749.05053 2.18021.04228-.34352-2.8742c-.22037-1.88783-.41481-3.71033-.53148-5.41526l-.89258-.0145-1.78504-.0367a303.12348 303.12348 0 01-1.7837-.04707l-1.78088-.0576-1.7766-.06829a281.06435 281.06435 0 01-1.77088-.0791l-1.76367-.09009-1.755-.1012a254.39872 254.39872 0 01-1.7449-.11248l-1.7333-.12389a232.16978 232.16978 0 01-2.57504-.20757l-1.69795-.15309c-1.97149-.18554-3.90888-.39544-5.80173-.63078l-1.6113-.20797c-1.0666-.14283-2.11767-.29406-3.1513-.4539l-1.53707-.24622-.97248-.16497-.96068-.17039-.9485-.17585-.93595-.18134-.92299-.18689-.90965-.19245-.89592-.19808-.8818-.20372-.86732-.20942a84.71722 84.71722 0 01-.4281-.10686l-.84482-.21804-.82937-.22382a72.64808 72.64808 0 01-.40876-.1141l-.80544-.23259a65.97029 65.97029 0 01-.39658-.1185l-.78064-.24143-.76363-.24738a55.75796 55.75796 0 01-.3753-.12594l-.73738-.25638a50.11005 50.11005 0 01-.36197-.13045l-.71026-.26547-.6917-.27157c-6.36798-2.56326-10.25982-5.9294-10.25982-10.24192 0-7.23123 5.425-12.346 16.625-15.78523a64.19597 64.19597 0 01.9161-.27277l.9393-.2648.96285-.25688.98671-.249 1.01092-.24117 1.03547-.23338c1.04786-.22951 2.13304-.44742 3.25706-.65392l1.13702-.20272 1.16324-.19516c.78432-.1276 1.58635-.2502 2.40653-.36785l1.24395-.17278 1.27153-.16541c.42847-.05391.8616-.1066 1.29944-.1581l1.32768-.1508 1.35627-.1436 1.38519-.1364 1.41444-.12927 1.44404-.12218 1.47397-.11513 1.50423-.10814 1.53483-.10118 1.56578-.09428 1.59705-.08742 1.62866-.08061 1.66061-.07384 1.6929-.06713 1.72551-.06044 2.65018-.07826 1.80854-.04397c.35-3.79198.875-7.4076 1.575-11.0232-12.54815.73161-23.12977 2.5471-33.3108 4.91427l-1.90463.45018-.9495.2297-1.89486.4681a349.68544 349.68544 0 00-1.8912.4791l-1.88983.4893-1.89076.49872-2.84292.76404-2.85793.78085-4.81757 1.33164-1.575.44093c-3.15.88186-7.175.35274-8.925-1.32278-.525-.52912-.875-1.05823-.875-1.58735 0-1.1464 1.225-2.29282 3.325-2.91012l2.89027-.80642 3.93484-1.09014 2.62046-.7186 2.62418-.70942 1.75402-.4667 1.75943-.46092 2.6526-.67907 1.77957-.4435a309.84846 309.84846 0 011.79025-.43535l1.80244-.42652c1.20603-.28125 2.4212-.55616 3.6475-.82383l1.84805-.39595c10.21303-2.1466 21.25264-3.76934 34.24639-4.36046 1.05-4.67384 2.275-9.1713 3.675-13.40422-10.84291.49114-20.83767-.8128-31.1652-2.8109l-2.14186-.42294-2.08619-.42657-2.09939-.44116-2.1147-.45378-2.13214-.46442-8.59141-1.89138-2.74525-.59386-2.79728-.59236-2.13536-.44132-2.16992-.43723-1.46694-.28855-1.48399-.2857-1.5017-.28247-1.5201-.2788-1.53916-.27474-1.5589-.27026-1.9774-.3309-2.01061-.32247-1.63327-.25136-2.4928-.36504-1.69145-.23478-1.71588-.22743a277.69647 277.69647 0 00-1.741-.21966l-1.7668-.2115a277.11199 277.11199 0 00-.89328-.10256l-1.80674-.19847-.91363-.09581-1.8482-.18452a280.49038 280.49038 0 00-.93475-.08861l-1.89117-.16965-.9566-.08094-1.93567-.15386-1.96616-.14281-1.99733-.13136c-3.01971-.18825-6.1469-.33646-9.39177-.4384l-1.086-.03225a370.3569 370.3569 0 00-4.51284-.1104l-2.2146-.0339-2.18713-.02022a348.04888 348.04888 0 00-2.15998-.00689zM301 190.4914l-.24046.13188-.25175.14688-.26269.16222-.27329.17793-.42906.2971-.2983.21872-.30769.23565-.31676.25294-.32548.27057-.33386.28855-.34189.3069-.34959.32558-.53805.52419-.36733.37384-.37382.39376-.37998.41404-.3858.43465-.39125.45564-.3964.47695-.60345.7562-.51028.66826-.51628.70366-.41691.58885a50.30569 50.30569 0 00-.41999.6123l-.42272.63608-.42511.66021-.42717.68471-.42888.70955-.21497.3642-.4308.74746-.43165.7732-.43217.79925-.43234.82568-.43217.85246-.43165.87958c-.3594.74438-.71792 1.51739-1.07465 2.31993l-.42717.9773-.42511 1.006-.52799 1.2984-.10509.26518c-5.95 15.07975-9.275 34.65697-9.275 55.11604 0 20.45907 3.325 39.9481 9.275 55.11603l.4214 1.04972c.07045.1725.14102.3438.21168.51387l.42511 1.006c.35517.82632.71247 1.62274 1.07102 2.39017l.4308.90706.21574.4432.43195.86597a71.0771 71.0771 0 00.64847 1.24854l.43217.79926.43165.77319.4308.74747.21497.3642.42888.70954.42717.68471.42511.66022.42272.63608c.07024.10402.14036.20705.21036.3091l.41849.60053.5185.718.51276.68234.20335.2631.40344.5096.5964.72355.58487.67556.38293.4243.37694.40385.37062.38376.36395.36402.35693.34462.3496.32559.34188.30689.33386.28856.32548.27056.31676.25294.45804.3471.29347.2104.28354.19397.2733.17793.38994.23757.24615.13933a9.7245 9.7245 0 00.1188.06409l.24046-.13188.25175-.14688.26269-.16223.27329-.17793.28354-.19398.29347-.21038.30304-.22715.31227-.24425.32116-.2617.32971-.27952.33792-.29768.17193-.15576.34959-.32559.35694-.34462.36394-.36401.37062-.38376.37694-.40386.38293-.4243.38857-.4451.39387-.46625.39883-.48775.20116-.25205.40563-.52066.61602-.82307.41524-.57727.20886-.29734.41999-.6123.21104-.31504.42396-.6481.42618-.67242a57.36087 57.36087 0 00.21382-.34544l.42888-.70954a61.5221 61.5221 0 00.43024-.73474l.43127-.76029a66.48439 66.48439 0 00.43195-.78617l.4323-.81243.4323-.83903.43195-.86597.43127-.89328c.35901-.75587.71695-1.54054 1.07294-2.35494l.42618-.9916.42396-1.02048c.14092-.34501.2814-.6949.4214-1.04972 5.95-15.07975 9.275-34.65696 9.275-55.11603 0-20.37089-3.325-39.9481-9.275-55.11604a94.80862 94.80862 0 00-.4214-1.04971l-.42396-1.02049-.42618-.9916c-.35599-.8144-.71393-1.59907-1.07294-2.35494l-.43127-.89328a74.51827 74.51827 0 00-.43195-.86597l-.4323-.83902c-.28823-.55045-.57647-1.08316-.86425-1.59861l-.43127-.76028a61.5221 61.5221 0 00-.43024-.73474l-.42888-.70955-.21382-.34544-.42618-.67241-.635-.96315-.41999-.6123-.4169-.58885-.2072-.28575-.41165-.55437-.40772-.5318-.40344-.50961a40.04763 40.04763 0 00-.20002-.24659l-.39639-.47696-.39126-.45563-.57653-.64423-.37694-.40385-.37062-.38376-.54331-.53873-.3533-.33506-.34579-.3162-.33792-.29767-.3297-.27952-.32117-.26171-.31227-.24425-.451-.3344-.28854-.20215-.27846-.1859-.39803-.24921-.25175-.14688-.24046-.13188zM25.025 290.22936l.525 4.40929c6.68168.18051 12.7659.40084 18.306.65409l3.25918.15584a716.92926 716.92926 0 011.58141.08078l3.0681.16707c7.51389.42666 13.86342.9196 19.22845 1.45556l2.09393.21662c23.14582 2.47978 26.552 5.77955 26.9764 7.72952l.03292.18882.017.1795.00472.16973-.01288.30821-.03148.36624-.02203.1629-.03238.17214a2.7307 2.7307 0 01-.04604.18085l-.063.18904-.03396.08564-.0808.17555-.0999.18096a3.05023 3.05023 0 01-.12123.18602l-.14483.1907c-1.33774 1.64002-5.47722 3.7507-18.65137 5.35154l-1.59196.18592c-2.4516.27517-5.19215.53328-8.25593.76891l-2.09078.1537a340.3313 340.3313 0 01-1.08201.07425l-2.23867.14306-2.34007.13551c-1.19577.06581-2.4304.12866-3.70519.18835l-2.60346.1151c-2.65773.11077-5.47942.20836-8.47521.29118l-3.0542.07784a763.04835 763.04835 0 01-1.57134.03511l-3.23253.0624-3.35424.05165-3.4782.04057a1026.97206 1026.97206 0 01-3.60442.02912c.25 1.00784.58929 1.97068.95408 2.95281l.44592 1.19192 4.01068-.00316 5.55769-.01627 5.76627-.034 2.9506-.02502 2.98986-.03108 4.54895-.05916 4.61306-.07585 3.10383-.06074 3.12156-.0695 3.135-.07883 1.5712-.04307 3.93446-.1189 3.93698-.1358 1.57362-.05927 3.14226-.12743 1.56757-.0683 3.12533-.14607c5.19618-.25423 10.32293-.56306 15.29063-.93778l3.38553-.26232 2.55912-.2133 1.28743-.11372 2.58362-.2421 1.93988-.1947 1.93652-.20632 1.92846-.21821 1.27882-.15224 1.27176-.15774 1.26328-.16335 1.25343-.16903 1.8586-.26442 1.22267-.18364 1.20793-.18965 1.1918-.19573 1.17425-.20192 1.15534-.20818c.3818-.07045.76022-.14195 1.13502-.21454l1.38807-.27724 1.35142-.28749 1.05292-.23748 1.02632-.24423.50275-.12468.98382-.25454.95374-.26152.37457-.1071.73353-.21766.7121-.2223.68995-.22697.66707-.2317.64347-.23649c4.20952-1.59256 6.79726-3.50654 6.79726-5.80352 0-1.14641-1.05-2.20464-3.15-3.26287-.72383-.36475-1.53689-.7187-2.43313-1.06217l-.68769-.25564a40.96455 40.96455 0 00-.35536-.12635l-.73342-.24978-.7632-.24592-.79241-.24209-.82107-.23827a70.33343 70.33343 0 00-.84915-.2345l-.87667-.23075-.90362-.22703a92.38237 92.38237 0 00-.46174-.11212l-.943-.2215-.96852-.21784-.9935-.21423-1.01791-.21062-1.04176-.20707-1.6061-.30396-1.09887-.19827-1.12075-.1948-1.72087-.28578-1.17293-.18626-1.1928-.1829-1.82526-.26808-1.8668-.26068-1.90646-.25335-1.29205-.16488-1.96828-.24137-2.6778-.31084-1.36052-.15078-2.06622-.22046-2.09504-.21368-2.12197-.207-2.86785-.26576-3.5722-.31037-1.43697-.11884-2.89644-.22978-1.45842-.11098-2.93457-.2143-2.95473-.20425a834.5125 834.5125 0 00-2.97066-.1944l-2.98237-.18478-2.98988-.17536-2.99317-.16615-1.4965-.07969-2.99018-.15273-2.98293-.14406-2.97145-.1356-2.95576-.12734-2.93585-.1193-2.91173-.11146-2.88339-.10385-4.26271-.14195-2.79409-.08572-5.45465-.15103-3.95755-.09623-5.07178-.10695-3.63166-.06513-3.46826-.05297-2.21438-.02893zm1.575 11.0232c.525 2.64558 1.05 5.20296 1.575 7.67216l2.8862-.01987 3.71485-.03857 2.68743-.0376 2.60398-.04468 3.34398-.0701 2.41336-.06009 3.09363-.08953 1.4943-.0486 3.58504-.13202 2.04924-.08596 2.61577-.12186 3.08586-.16298 2.32464-.13804 2.1993-.14408 2.07645-.1494 1.4782-.11513 1.41154-.11741 2.20729-.19998 1.63786-.16304 1.52683-.16498 1.07373-.1246 1.01372-.12498.95475-.12508 1.18309-.1664 1.0826-.16533.98461-.16354L84 305.75004l-.84636-.17259-1.19702-.22417-1.07238-.18522-1.17754-.18968-.9539-.14477-1.7282-.24514-1.1219-.14892-1.18717-.14994-1.68648-.20096-1.34413-.15112-1.41344-.15113-1.48397-.15084-2.09043-.20015-1.65327-.149-2.3206-.1966-1.8292-.1455-2.5596-.19088-2.70015-.18663-2.84358-.18166-2.22857-.13257-2.31208-.12907-3.21483-.16615-2.51173-.11976-2.59932-.11528-3.60412-.14619-2.80845-.10363-2.9001-.09813-4.01148-.1218zm226.1-46.29746c-.7817.01933-1.55022.0407-2.30578.06408l-2.22806.0761-2.15167.08778c-3.5232.15588-6.73363.35917-9.65909.60326l-1.7213.1513-1.65422.16078c-19.99411 2.04003-24.99043 6.17005-26.23895 9.71594l-.09324.28617a6.53612 6.53612 0 00-.04088.14203l-.0711.28174a6.9687 6.9687 0 00-.03056.13963l-.05933.32127-.04462.31602-.03202.31027-.02149.30404-.01307.2973-.00674.29007-.00288.56192c0 1.64637 1.31682 3.08538 3.65113 4.32707l.49738.2541c.42642.2094.88247.41295 1.36662.61071l.59437.23454c.20255.07726.4095.15359.62076.229l.64655.22347.67176.21798.69638.21249c.11808.03496.23716.06969.35724.1042l.7322.2043c.12398.0336.24892.06697.37482.10011l.7667.19616.78896.19076.81064.18538a73.6106 73.6106 0 00.41326.09068l.84204.17734.86224.172 1.05701.19875 1.08406.19119.55186.09276 1.12275.1799 1.14727.17241 1.7647.24466 1.20417.15385.61003.07416 1.2353.14282 1.2548.1355 1.91652.18961 1.2991.11737 1.31507.11016 1.33001.103 1.34396.09588 1.3569.08879 2.05738.11994 1.38483.0712 2.09456.09372 2.11233.07814 1.4164.0435 1.42179.03665 1.42615.02985-.05986-.9463-.07634-1.35883-.06162-1.2829-.06198-1.58624-.04235-1.4364-.03489-1.85516-.01086-1.25321-.0021-1.1278c0-4.67384.175-9.2595.525-13.75696zM24.325 254.426l-.14592 1.45365c-.1148 1.22251-.20408 2.4643-.20408 3.66111l.73214-.10424a43.446 43.446 0 00.69643-.11058l.66072-.11606.625-.1207.58928-.12447.81697-.19189.5-.13014.46428-.13092.42857-.13083.5759-.1942.33928-.12687.30357-.12378.32924-.14908.27344-.14125.09375-.05392.16072-.10287c.19047-.13244.28571-.24522.28571-.3292l-.00744-.02558-.02298-.03499-.03954-.04405-.05711-.05276-.0757-.06112-.15061-.10659-.19813-.12343-.16017-.09105-.18383-.09766-.20849-.10391-.3612-.16683-.27458-.11801-.46508-.18633-.34702-.12992-.37775-.13407-.40951-.13787-.44228-.1413-.72709-.21767-.52864-.14839-.56495-.1506-.60229-.15248-.64063-.154-.67998-.15515zm148.4-39.77173c8.75 2.02827 14.175 6.34936 14.175 11.19958 0 4.59462-4.7353 8.59269-12.70965 10.73755l-.41535.10928c-37.59525 9.95263-71.58863 10.31145-100.79153 1.07646l-.88347-.28279c-7.04455-2.25114-11.22129-6.03242-11.37084-10.25884l-.00416-.23525c0-2.82194 1.75-5.37933 5.25-7.58397 25.725-15.87342 73.5-12.52236 106.75-4.76202zM76.3 223.73738c-1.49625.92154-2.36075 2.08184-2.44346 3.25408l-.00654.18516c0 2.02827 1.925 3.79198 5.25 4.85021 24.9375 8.02857 54.3307 7.76677 87.50125-.7854l1.04875-.27283c3.85-.97004 6.125-2.91012 6.125-5.02658 0-2.23249-2.32275-4.13056-6.32207-5.12437l-.32793-.07858c-46.2-10.84684-77.7-5.20296-90.825 2.9983zm143.85-60.49536l-.54458.38562-.3851.26548-.40307.27204-.63893.42007-.68095.43405-.72394.4476-.76788.46067-.5368.31416-.84324.48146-.58793.32759-.92126.50097-.64083.34017-1.00193.5192-.6955.3519-1.08527.53618-1.13654.54574-.78665.36892-.81016.37283-1.2599.56629-.87014.38202-.89463.38546-.9194.38876-.94445.39193-1.46429.59354-1.00833.39926-1.0344.40194-1.06071.4045-1.08734.40693-1.68152.61464-1.15512.41238-1.18272.41433-1.21061.41614-1.86883.6273-1.28159.42008c-.43199.14026-.8688.28073-1.31046.42141h9.1c6.475 0 11.9 2.64557 11.9 5.99663 0 3.35105-5.25 5.99662-11.9 5.99662H49.875l-.1011.0404-.21517.09342-.23197.11063-.2482.12837-.26387.14662-.27899.16539-.29354.18467-.30752.20446a16.48872 16.48872 0 00-.32095.22478l-.3338.24562-.34612.26695-.35784.28882-.36902.31119-.47614.42123-.4916.45801-.4037.39357-.41235.41825-.52672.55833-.53825.59874c-.28995.33027-.58435.6782-.88244 1.0445l-.44982.56329c-.1508.1924-.30244.3895-.4548.59133l-.45924.6199a45.4975 45.4975 0 00-.6959.98452l-.46784.69355-.47028.7239c-1.0212 1.60175-2.05573 3.42094-3.07783 5.48116 5.0575-.14991 10.39597-.72459 16.1428-1.53147l2.04544-.2941 2.08061-.31152 2.117-.32703 3.2465-.51553 11.13602-1.80637 2.76934-.43797 2.83115-.43698 2.89532-.43339 1.47245-.21453 2.24052-.3182 2.27959-.31288 1.54193-.2051 1.56003-.20194 2.37463-.29624 1.60658-.1926 1.62572-.18827 1.64514-.18365 2.50479-.26609 1.695-.17065 1.71547-.16488 1.73622-.1588 1.75726-.15237 1.77862-.14564 1.80024-.13857 1.82219-.13118 1.8444-.12346 1.86693-.11543 1.88975-.10705 2.87804-.1442 1.94808-.08473 1.97192-.07522.995-.03395 2.00824-.06037 2.03283-.05006 2.0577-.03941 2.08288-.02846a381.37534 381.37534 0 012.10834-.01717l2.1341-.00556 1.07681.00168 2.1733.01247a397.18113 397.18113 0 015.54982.08622l2.26733.05737 1.14397.03375c1.0747.03112 2.1383.06708 3.19097.10766l2.09087.08727a323.72334 323.72334 0 013.08257.1532l2.01975.11647 1.99196.1275 1.96452.13815 1.93746.14843.9587.07796 1.89756.16316 1.87142.17251 1.84565.1815 1.82026.1901 1.79522.19834 1.77056.2062 2.17908.26826 2.14185.27923 1.68715.2308 1.66416.23699 1.64152.2428 1.61926.24826 2.38797.38177 2.33995.39193 2.29319.40084.75422.13537 2.23278.41074 1.46407.27723 2.16038.42 2.1186.42388 1.3898.28412 2.05175.42755 2.01329.42808 2.62672.56942 9.91525 2.1991 2.63199.57416 2.56839.5479 1.67983.34907 1.65595.33498.81956.1619 1.62338.31204c9.67997 1.82367 18.30574 2.75607 27.57744 1.85757l.42-1.05258c.21-.52065.42-1.0286.63-1.5048 0-.08818.175-.26456.175-.35274-1.64826-.37838-3.2256-.7838-4.73022-1.21515l-.9923-.2914-.97062-.299-.94884-.30655a68.02513 68.02513 0 01-.92693-.314l-.90492-.3214c-9.9815-3.62992-15.82181-8.62845-16.77617-14.53689-5.075-.70549-8.75-2.99831-8.75-5.73207 0-3.26287 5.25-5.99662 11.9-5.99662h1.75l.16102-.59578.16487-.63329.16874-.6714.17259-.71008.26611-1.13897.18223-.8094.1861-.85016.18994-.89149.1938-.93343.29793-1.48005.30661-1.57771.3153-1.67736.215-1.17459.32976-1.84785h-25.2v-.26456zm54.075 26.98481h-23.8c.93586 3.4584 4.51315 6.91678 12.96226 9.62588l.90747.28237c.30855.09318.6232.1854.94403.27664l.96506.2664.49618.13099c2.275-4.05654 4.725-7.58397 7.525-10.58228z"/>
</svg>
