<svg xmlns="http://www.w3.org/2000/svg" viewBox="0 0 15.63 18.53"><defs><style>.cls-1{fill:#616161;}</style></defs><title>search</title><g id="Layer_2" data-name="Layer 2"><g id="Layer_1-2" data-name="Layer 1"><path class="cls-1" d="M7.07,14.11A7.49,7.49,0,0,1,5.66,14,7.05,7.05,0,0,1,.14,5.66,7.05,7.05,0,0,1,8.45.14,7.05,7.05,0,0,1,14,8.45a7.06,7.06,0,0,1-6.9,5.66Zm0-12.51a5.43,5.43,0,0,0-3,.91,5.45,5.45,0,0,0-1.52,7.55A5.44,5.44,0,0,0,12.4,8.12h0A5.45,5.45,0,0,0,8.14,1.7,6.8,6.8,0,0,0,7.05,1.6Z"/><path class="cls-1" d="M14.84,18.53a.76.76,0,0,1-.63-.31L10,12.78a.78.78,0,0,1,.14-1.11.8.8,0,0,1,1.12.14l4.19,5.44a.81.81,0,0,1-.15,1.12A.79.79,0,0,1,14.84,18.53Z"/></g></g></svg>