<?xml version="1.0" encoding="UTF-8"?>
<svg width="17px" height="19px" viewBox="0 0 17 19" version="1.1" xmlns="http://www.w3.org/2000/svg" xmlns:xlink="http://www.w3.org/1999/xlink">
    <title>search</title>
    <g id="Page-1" stroke="none" stroke-width="1" fill="none" fill-rule="evenodd">
        <g id="search" fill="#616161" fill-rule="nonzero">
            <path d="M9.45,0.14 C11.2900692,0.502057921 12.9100569,1.58232732 13.9516132,3.14184676 C14.9931695,4.70136621 15.3704507,6.61160213 15,8.45 C14.6809649,10.0269313 13.8508239,11.3918435 12.7030657,12.3860197 L16.45,17.25 C16.7116681,17.6023224 16.6451556,18.0989487 16.3,18.37 C16.1673432,18.4704466 16.0063571,18.5264417 15.84,18.53 C15.5919917,18.5356794 15.3568205,18.4199603 15.21,18.22 L11.3905529,13.2862902 C10.4027829,13.8112218 9.28045668,14.1066888 8.1,14.11 L8.07,14.11 C7.59758253,14.1178881 7.12547846,14.0810573 6.66,14 C4.81912487,13.6314341 3.20128909,12.5438379 2.16509438,10.9782829 C1.12889966,9.41272781 0.759941004,7.49853672 1.14,5.66 C1.50892527,3.82545839 2.59206295,2.21284984 4.15078238,1.17745499 C5.7095018,0.142060133 7.61591069,-0.231167303 9.45,0.14 Z M8.05800168,1.59989624 L8.07,1.6 C7.00228063,1.60178564 5.95878273,1.91831333 5.07,2.51 C2.56748344,4.17654466 1.88733719,7.55490268 3.55,10.06 C4.77115019,11.8831309 6.96806954,12.7940999 9.12102323,12.3700664 C11.1970857,11.9611769 12.8402582,10.3881472 13.3482623,8.348511 L13.4,8.12 C13.9953647,5.17101523 12.0885732,2.29739985 9.14,1.7 C8.89996274,1.65828728 8.65794413,1.62952009 8.41499359,1.6137947 L8.05800168,1.59989624 Z" id="Combined-Shape"></path>
        </g>
    </g>
</svg>