<?xml version="1.0" encoding="utf-8"?>
<!-- Generator: Adobe Illustrator 22.1.0, SVG Export Plug-In . SVG Version: 6.00 Build 0)  -->
<svg version="1.1" id="Layer_1" xmlns="http://www.w3.org/2000/svg" xmlns:xlink="http://www.w3.org/1999/xlink" x="0px" y="0px"
	 viewBox="0 0 80.8 77.3" style="enable-background:new 0 0 80.8 77.3;" xml:space="preserve">
<style type="text/css">
	.st0{fill:#FFFFFF;}
</style>
<title>star-highlight</title>
<g id="Layer_2_1_">
	<g id="Layer_1-2">
		<path class="st0" d="M40.8,0c1.3,0.3,1.5,0.4,2,1.6c2.8,8,5.3,16,8.3,23.9c0.4,0.9,1.2,1.5,2.2,1.5l25.2,0.6
			c1.4,0.1,2.5,1.4,2.3,2.8c-0.1,0.7-0.4,1.3-0.9,1.7c-6.7,5.1-13.6,10-20.2,15.3c-0.7,0.6-1.1,1.6-0.8,2.6l7.3,24.2
			c0.3,1.4-0.6,2.8-2,3.1c-0.6,0.1-1.3,0-1.8-0.3c-6.9-4.8-13.7-9.8-20.8-14.4C40.9,62,39.8,62,39,62.5L18.3,76.9
			c-1.2,0.7-2.8,0.3-3.5-1c-0.3-0.5-0.4-1.2-0.3-1.8c2.4-8.1,5.1-16.1,7.3-24.3c0.2-0.9-0.1-1.9-0.9-2.5L0.9,32.1
			c-1.1-0.9-1.2-2.6-0.2-3.6c0.4-0.5,1-0.8,1.7-0.9c8.4-0.2,16.9-0.1,25.3-0.6c1-0.1,1.8-0.7,2.1-1.6l8.3-23.8
			C38.4,0.5,39.6-0.3,40.8,0z"/>
	</g>
</g>
</svg>
