<svg xmlns="http://www.w3.org/2000/svg" viewBox="0 0 80.83 77.28"><defs><style>.cls-1{fill:#ffe12e;}</style></defs><title>star-highlight</title><g id="Layer_2" data-name="Layer 2"><g id="Layer_1-2" data-name="Layer 1"><path class="cls-1" d="M40.82,0c1.32.29,1.47.45,2,1.64,2.78,8,5.34,16,8.35,23.9a2.45,2.45,0,0,0,2.18,1.51l25.2.56A2.58,2.58,0,0,1,80,32.12c-6.72,5.11-13.58,10-20.15,15.33A2.46,2.46,0,0,0,59.06,50l7.26,24.15a2.58,2.58,0,0,1-3.82,2.77c-6.93-4.81-13.73-9.82-20.8-14.43a2.45,2.45,0,0,0-2.65.06L18.33,76.91a2.59,2.59,0,0,1-3.82-2.77C16.94,66.06,19.6,58,21.8,49.89a2.45,2.45,0,0,0-.87-2.5L.86,32.12a2.57,2.57,0,0,1,1.46-4.48c8.43-.19,16.88-.14,25.31-.56a2.46,2.46,0,0,0,2.11-1.61l8.32-23.8A2.31,2.31,0,0,1,40.82,0Z"/></g></g></svg>