<svg xmlns="http://www.w3.org/2000/svg" viewBox="0 0 18.78 17.15"><defs><style>.cls-1{fill:#2199f1;}.cls-2{fill:#fff;}.cls-3{fill:none;stroke:#fff;stroke-miterlimit:10;}</style></defs><title>time-inspect-active</title><g id="Layer_2" data-name="Layer 2"><g id="Layer_1-2" data-name="Layer 1"><circle class="cls-1" cx="7" cy="7" r="7"/><path class="cls-2" d="M12,16.77a.29.29,0,0,1-.29-.21L9,7.32a.29.29,0,0,1,0-.26.31.31,0,0,1,.24-.12l.12,0,8.85,3.84a.3.3,0,0,1,0,.56L14.5,12.48a1,1,0,0,0-.66.58l-1.55,3.53A.29.29,0,0,1,12,16.77Z"/><path class="cls-1" d="M9.37,7.37l8.51,3.69-3.49,1.06a1.42,1.42,0,0,0-.89.79L12,16.25,9.37,7.37m-.12-.81a.68.68,0,0,0-.64.87l2.77,9.24a.67.67,0,0,0,1.26.08l1.55-3.53a.67.67,0,0,1,.42-.37l3.69-1.12a.67.67,0,0,0,.07-1.26L9.52,6.61a.68.68,0,0,0-.27-.06Z"/><polyline class="cls-3" points="3.5 8.5 7 7.5 7 3.5"/></g></g></svg>