<svg xmlns="http://www.w3.org/2000/svg" viewBox="0 0 19.28 17.66"><defs><style>.cls-1,.cls-4{fill:none;stroke-miterlimit:10;}.cls-1{stroke:#fffdfd;}.cls-2{fill:#59a5c6;}.cls-3{fill:#fff;}.cls-4{stroke:#fff;}</style></defs><title>time-inspect-active-2</title><g id="Layer_2" data-name="Layer 2"><g id="Layer_1-2" data-name="Layer 1"><circle class="cls-1" cx="7.5" cy="7.5" r="7"/><path class="cls-2" d="M12.5,17.27a.29.29,0,0,1-.29-.21L9.5,7.82a.3.3,0,0,1,0-.26.33.33,0,0,1,.24-.12h.12l8.85,3.84a.3.3,0,0,1,.17.39.29.29,0,0,1-.17.17L15,13a1,1,0,0,0-.66.58l-1.55,3.53A.28.28,0,0,1,12.5,17.27Z"/><path class="cls-3" d="M9.87,7.87l8.51,3.69-3.49,1.06a1.42,1.42,0,0,0-.89.79l-1.5,3.34L9.87,7.87m-.12-.81a.69.69,0,0,0-.67.69.57.57,0,0,0,0,.18l2.77,9.24a.67.67,0,0,0,.83.46.68.68,0,0,0,.43-.38l1.55-3.53a.67.67,0,0,1,.42-.37l3.69-1.12a.67.67,0,0,0,.45-.83.63.63,0,0,0-.38-.43L10,7.11a.63.63,0,0,0-.27-.06Z"/><polyline class="cls-4" points="4 9 7.5 8 7.5 4"/></g></g></svg>