<?xml version="1.0" encoding="UTF-8"?>
<svg width="19px" height="18px" viewBox="0 0 19 18" version="1.1" xmlns="http://www.w3.org/2000/svg" xmlns:xlink="http://www.w3.org/1999/xlink">
    <title>Combined Shape</title>
    <g id="Page-1" stroke="none" stroke-width="1" fill="none" fill-rule="evenodd">
        <path d="M7,0 C10.8659932,0 14,3.13400675 14,7 C14,7.51269826 13.944881,8.01252279 13.8402454,8.49387111 L18.37,10.47 C18.6309687,10.5798756 18.7946889,10.8419457 18.7789823,11.1246657 C18.765239,11.3720456 18.6167185,11.5884961 18.3978969,11.6925329 L18.3,11.73 L14.61,12.85 C14.4539339,12.8967876 14.3213868,12.9984387 14.2356434,13.1344407 L14.19,13.22 L12.64,16.75 C12.5282797,17.0105376 12.264682,17.1725679 11.9817711,17.1546053 C11.734224,17.138888 11.5187739,16.9883404 11.4166113,16.768345 L11.38,16.67 L10.3276851,13.1599808 C9.33794224,13.6957782 8.20449852,14 7,14 C3.13400675,14 0,10.8659932 0,7 C0,3.13400675 3.13400675,0 7,0 Z M13.5,12.91 C13.6666911,12.5290602 13.9919759,12.2403242 14.39,12.12 L14.39,12.12 L17.88,11.06 L13.6404092,9.22071359 L9.37,7.37 L12,16.25 Z M7.50413922,3.5 L6.49661251,3.5 L6.49661251,7.12455903 L3.36227461,8.02118354 L3.63851485,8.97932853 L7.50413922,7.88280629 L7.50413922,3.5 Z" id="Combined-Shape" fill="#616161" fill-rule="nonzero"></path>
    </g>
</svg>