<svg xmlns="http://www.w3.org/2000/svg" viewBox="0 0 14.99 14.99"><defs><style>.cls-1{fill:#fff;}</style></defs><title>wisk-highlight</title><g id="Layer_2" data-name="Layer 2"><g id="Layer_1-2" data-name="Layer 1"><g id="Layer_1-2-2" data-name="Layer 1-2"><polygon class="cls-1" points="9.19 6.69 11.23 4.65 10.34 3.76 8.3 5.8 9.19 6.69"/><path class="cls-1" d="M7.46,8.16,6.14,12a2.5,2.5,0,0,1-4.76-1.52A2.53,2.53,0,0,1,2.9,8.89L7,7.47l.8-.26ZM9.34,6.44A.61.61,0,0,0,9,5.65a.58.58,0,0,0-.41,0l-2,.63L2.48,7.71a3.75,3.75,0,1,0,4.85,4.64L8.65,8.56Z"/><path class="cls-1" d="M13.64,1.75a.34.34,0,0,1,0,.48L11.91,4a.32.32,0,0,1-.46,0h0L11,3.6a.33.33,0,0,1,0-.47h0l1.72-1.73a.36.36,0,0,1,.49,0ZM11.87.47,10.14,2.19a1.62,1.62,0,0,0,0,2.26l.4.4a1.61,1.61,0,0,0,2.26,0l1.72-1.73a1.58,1.58,0,0,0,0-2.23l0,0-.4-.4a1.57,1.57,0,0,0-2.23,0Z"/><path class="cls-1" d="M2.31,13.57,9.19,6.69a.62.62,0,0,0,0-.89.63.63,0,0,0-.85,0L1.42,12.68a.64.64,0,0,0,0,.89A.63.63,0,0,0,2.31,13.57Z"/></g></g></g></svg>