<svg xmlns="http://www.w3.org/2000/svg" viewBox="0 0 15 15"><defs><style>.cls-1{fill:#616161;fill-rule:evenodd;}</style></defs><title>wisk</title><g id="Layer_2" data-name="Layer 2"><g id="Layer_1-2" data-name="Layer 1"><polygon class="cls-1" points="9.2 6.69 11.24 4.65 10.35 3.76 8.31 5.8 9.2 6.69"/><path class="cls-1" d="M7.47,8.16,6.15,12A2.5,2.5,0,1,1,2.91,8.89L7,7.47l.8-.26ZM9.35,6.44a.62.62,0,0,0-.79-.79l-2,.63L2.49,7.71a3.75,3.75,0,1,0,4.85,4.64L8.66,8.56Z"/><path class="cls-1" d="M13.65,1.75a.34.34,0,0,1,0,.48L11.92,4a.33.33,0,0,1-.48,0l-.4-.4a.33.33,0,0,1,0-.48l1.72-1.73a.36.36,0,0,1,.49,0ZM11.88.47,10.15,2.19a1.61,1.61,0,0,0,0,2.26l.4.4a1.61,1.61,0,0,0,2.26,0l1.72-1.73a1.58,1.58,0,0,0,0-2.25l-.4-.4A1.58,1.58,0,0,0,11.88.47Z"/><path class="cls-1" d="M2.32,13.57,9.2,6.69a.63.63,0,0,0-.89-.89L1.43,12.68a.63.63,0,0,0,.89.89Z"/></g></g></svg>